<svg xmlns="http://www.w3.org/2000/svg" version="1.1" xmlns:xlink="http://www.w3.org/1999/xlink" xmlns:svgjs="http://svgjs.dev/svgjs" width="113.07" height="150"><svg id="SvgjsSvg1056" data-name="Layer 1" xmlns="http://www.w3.org/2000/svg" version="1.1" viewBox="0 0 113.07 150">
  <defs>
    <style>
      .cls-1 {
        fill: #d1ba80;
        stroke-width: 0px;
      }
    </style>
  </defs>
  <path class="cls-1" d="M84.01,121.33c-.47-.24-1-.41-1.41-.73-3.03-2.37-6.03-4.77-9.05-7.15-6.84-5.39-12.84-11.61-18.04-18.57-4-5.36-7.46-11.07-10.06-17.24-1.89-4.5-3.01-9.17-2.55-14.13.7-7.48,5.6-12.68,13.12-13.95,5.28-.89,10.3-.2,15.17,1.96,8.68,3.85,15.23,9.97,19.74,18.31,1.9,3.51,3.36,7.19,4.37,11.05.09.35.15.7.28,1.35-.55-.35-.92-.5-1.18-.76-1.78-1.78-3.96-2.75-6.32-3.57-2.12-.73-4.07-1.95-6.08-2.99-1.6-.83-3.16-1.71-4.75-2.55-.2-.11-.44-.15-.93-.31.23.53.31.89.52,1.14.64.79,1.33,1.55,2.01,2.32.84.95.75,1.49-.52,1.68-1.64.24-3.32.23-4.98.3-.3.01-.61-.09-.91-.17-2.17-.58-4.33-.74-6.6-.39-1.47.23-3.12-.03-4.58-.45-5.02-1.42-9.31-4.02-12.38-8.37-1-1.41-1.66-2.97-1.91-4.7-.05-.31-.21-.61-.31-.91-.11-.01-.21-.03-.32-.04-.16.45-.41.9-.47,1.37-.35,2.87.18,5.55,1.81,7.99.33.49.64,1.01.82,1.56,1.76,5.56,4.85,10.41,8.34,14.96,4.51,5.87,9.27,11.56,14.03,17.23,4.11,4.89,8.39,9.64,12.58,14.46.28.32.5.68.75,1.02-.07.1-.14.2-.21.3Z"></path>
  <path class="cls-1" d="M18.96,32.06c-1.31.45-2.63.86-3.93,1.35-2.01.75-2.06.74-2.62-1.35-.29-1.09-.28-1.03.83-1.31,1.38-.34,2.74-.79,4.1-1.22.24-.08.45-.27.65-.65-.33-.07-.66-.19-.99-.2-1.27-.02-2.54-.03-3.81,0-.71.02-.98-.24-1-.97-.04-2.2.02-2.25,2.2-2.05,1.08.1,2.17.07,3.25.08.22,0,.45-.09.72-.37-.36-.2-.69-.47-1.07-.59-1.15-.37-2.32-.68-3.48-1-.63-.17-.84-.46-.59-1.14.66-1.81.62-1.77,2.54-1.51,2.24.3,4.39.82,6.3,2.08.23.15.46.29.77.49-.17.3-.31.57-.46.82-1.36,2.29-.87,5.18,1.18,7.02,1.89,1.7,5.08,1.87,7.08.38.02-.02.05-.04.07-.06.34-.29.77-.9.99-.83.66.21,1.26.65,1.82,1.08.16.13.24.6.14.8-2.25,4.33-1.37,8.41.97,12.36.52.88,1.06,1.76,1.73,2.52.73.84,1.11.81,1.96.08,2.55-2.16,3.67-5.12,4.37-8.23.53-2.38.43-4.75-1.04-6.88-.11-.16.02-.64.2-.79.49-.42,1.06-.75,1.62-1.13.15.12.3.22.43.35,1.87,1.94,4.88,2.24,6.91.68,2.55-1.95,3.31-5.14,1.73-7.56-.42-.65-.32-.94.31-1.29,2.35-1.32,4.96-1.73,7.56-2.13.23-.03.52.27.76.45.08.06.09.22.13.34.59,1.69.58,1.67-1.15,2.17-1.01.29-2.01.63-3,.99-.22.08-.38.35-.57.53.25.12.51.36.76.35,1.39-.05,2.79-.11,4.17-.28.79-.09,1.08.13,1.1.91.07,2.45.63,2.34-2.21,2.32-1.16,0-2.31.1-3.47.15-.02.11-.03.21-.05.32.34.17.66.4,1.01.49,1.32.33,2.65.64,3.99.91.6.12.75.41.67.97-.33,2.32-.48,2.4-2.68,1.69-1.23-.4-2.48-.73-3.72-1.09-.06.08-.13.15-.19.23.36.41.66.92,1.1,1.23,1.14.8,2.32,1.55,3.52,2.25.57.33.66.68.33,1.2-.03.05-.06.11-.1.16-1.41,1.8-.84,2.26-3.02.48-.98-.8-2.01-1.56-3.03-2.31-.25-.19-.56-.31-.84-.46-.08.06-.15.11-.23.17.15.37.22.8.45,1.11.92,1.24,1.84,2.49,2.86,3.64.58.65.66,1.05,0,1.67-1.65,1.52-1.63,1.55-2.89-.3-.8-1.18-1.58-2.37-2.41-3.54-.29-.4-.68-.73-1.02-1.09l-.28.15c.05.34.06.69.17,1,.58,1.67,1.16,3.34,1.79,4.99.3.78.09,1.19-.68,1.5-1.96.8-1.91.82-2.48-1.26-.36-1.31-.86-2.59-1.31-3.87-.08-.24-.25-.45-.62-.64-.04.31-.12.62-.11.93.11,1.76.23,3.52.37,5.28.05.6-.15.95-.71,1.24-2.76,1.4-5.52,2.82-8.25,4.28-.59.32-1.08.35-1.66.05-1.35-.7-2.7-1.39-4.06-2.06-1.36-.67-2.73-1.34-4.11-1.96-.63-.28-.85-.64-.81-1.36.11-1.73.11-3.47.13-5.21,0-.35-.08-.69-.13-1.04-.08-.01-.17-.03-.25-.04-.18.37-.41.73-.53,1.12-.45,1.42-.88,2.84-1.28,4.28-.19.69-.49.89-1.2.62-1.97-.75-1.98-.73-1.32-2.73.4-1.24.82-2.47,1.19-3.72.13-.44.14-.93.2-1.39-.1-.05-.2-.09-.31-.14-.38.46-.81.88-1.11,1.38-.83,1.34-1.61,2.72-2.42,4.08-.6,1.01-.72,1.05-1.58.28-2.01-1.81-1.82-1.26-.26-3.24.82-1.04,1.53-2.18,2.28-3.28.14-.21.19-.48.12-.9-.31.14-.66.22-.93.42-1.09.83-2.13,1.7-3.21,2.53-1.85,1.41-1.97,1.37-2.98-.65-.12-.24-.23-.5-.37-.82,1.99-1.03,3.73-2.32,5.18-3.95-.06-.11-.13-.21-.19-.32Z"></path>
  <path class="cls-1" d="M108.36,138.26c-1.53-.99-3.08-1.94-4.59-2.96-7.17-4.84-13.35-10.74-18.86-17.41-4.58-5.54-9.51-10.79-14.14-16.3-5.64-6.72-11.26-13.46-16.14-20.78-.61-.92-1.08-1.95-1.55-2.96-.14-.29-.04-.69-.05-1.04.32.07.66.09.95.22,3.99,1.64,6.95,4.57,9.7,7.77,3.98,4.63,7.91,9.3,11.92,13.91,4.78,5.49,9.66,10.91,14.44,16.41,4.49,5.17,8.97,10.36,13.33,15.64,1.81,2.19,3.32,4.64,4.96,6.97.08.12.12.27.18.4-.06.05-.11.1-.17.15Z"></path>
  <path class="cls-1" d="M113.07,135.94c-1.74-1.66-3.44-3.14-4.97-4.78-5.32-5.71-10.67-11.41-15.86-17.25-7.25-8.15-14.39-16.41-21.55-24.64-1.83-2.1-3.56-4.29-5.32-6.46-.38-.48-.69-1.03-.96-1.58-.25-.51-.07-.88.54-.84,2.39.15,4.63.33,6.45,2.41,4.94,5.68,10.08,11.19,15.14,16.77,5.06,5.58,10.11,11.17,15.17,16.75,1.58,1.74,3.3,3.39,4.73,5.25,1.29,1.68,2.47,3.5,3.35,5.42,1.19,2.58,2.04,5.32,3.03,7.99.1.27.15.56.25.95Z"></path>
  <path class="cls-1" d="M3.77,50.04c0,.38,0,.76,0,1.14,0,3.69-.16,7.38.05,11.05.26,4.6,1.34,9.06,2.81,13.43,2.39,7.11,6.07,13.5,10.84,19.26,2.37,2.86,4.95,5.55,7.42,8.33.68.76,1.38,1.53.94,2.87-.8-.55-1.56-1.01-2.25-1.55-8.75-6.85-15.58-15.27-20.07-25.44C.92,73.21-.4,66.92.11,60.38c.26-3.27.99-6.43,2.63-9.32.22-.38.5-.73.75-1.09.1.03.19.06.29.08Z"></path>
  <path class="cls-1" d="M106.5,116.8c-1.15-1.01-2.19-1.82-3.12-2.75-8.24-8.21-15.99-16.87-23.58-25.68-1.48-1.71-2.94-3.44-4.37-5.2-.33-.41-.47-.98-.69-1.47.51-.16,1.01-.35,1.53-.48,1.93-.49,3.46-.03,4.84,1.57,2.94,3.39,6.12,6.57,9.08,9.96,4.12,4.71,8.14,9.52,12.17,14.31,2.17,2.57,3.21,5.7,4.15,8.86.06.19,0,.42,0,.88Z"></path>
  <path class="cls-1" d="M70.82,117.18c.37.21.51.25.57.33,1.24,1.86,3.25,2.85,4.87,4.27.61.54,1.19,1.21,1.54,1.93,2.74,5.67,5.44,11.35,8.1,17.06,1.02,2.19,1.73,4.47,1.13,6.93-.21.88-.38,1.89-1.34,2.2-1.01.33-1.85-.37-2.4-1.1-.94-1.25-1.94-2.54-2.51-3.98-2.51-6.38-4.89-12.8-7.28-19.23-.85-2.3-1.59-4.63-2.37-6.96-.13-.39-.18-.81-.33-1.47Z"></path>
  <path class="cls-1" d="M64.85,113.62c.67,1.08,1.43,2.12,1.99,3.26.91,1.87,1.76,3.77,2.5,5.71,2.56,6.75,5.06,13.53,7.58,20.3.13.35.24.71.32,1.07.14.67.12,1.32-.51,1.76-.64.45-1.33.35-1.92-.07-1.45-1.03-2.58-2.33-3.18-4.02-.71-2.02-1.42-4.04-2.02-6.09-1.7-5.83-3.37-11.68-4.99-17.53-.28-1-.36-2.07-.44-3.11-.03-.38.19-.78.3-1.18.13-.03.26-.07.39-.1Z"></path>
  <path class="cls-1" d="M69.52,47.39c-4.69-1.18-9.14-2.04-13.72-.91-.04-.08-.07-.16-.11-.24.36-.29.7-.6,1.08-.86,1.87-1.3,3.59-2.75,4.87-4.67,3.56-5.37,4.7-11.17,3.14-17.45-.09-.36-.22-.72-.24-1.09-.01-.27.1-.75.21-.77.29-.04.72.02.91.22.28.3.45.73.6,1.14,1.31,3.49,1.78,7.15,1.9,10.84.09,2.69.03,5.39-.01,8.09-.02,1.55.27,3.01.91,4.42.15.33.25.68.46,1.29Z"></path>
  <path class="cls-1" d="M81.08,124.01c1.67,1.26,3.1,2.43,4.63,3.47,1.48,1.01,3.05,1.9,4.6,2.79,1.03.59,1.84,1.34,2.29,2.46.52,1.29,1.16,2.54,1.62,3.85.6,1.72.67,3.47-.17,5.15-.69,1.37-1.66,1.73-2.85.81-1.05-.82-2.16-1.79-2.75-2.94-2.52-4.94-4.85-9.97-7.25-14.97-.05-.1-.05-.23-.13-.6Z"></path>
  <path class="cls-1" d="M101.73,101.76c-.87-.82-1.8-1.58-2.59-2.47-4.42-4.91-8.81-9.83-13.18-14.77-1.06-1.2-2.01-2.52-2.98-3.8-.22-.29-.32-.68-.57-1.23.6.08.96.09,1.3.18,2.93.78,5.54,2.17,7.66,4.36,1.83,1.89,3.75,3.72,5.4,5.76,1.21,1.5,2.16,3.25,3.01,4.99.84,1.72,1.43,3.57,2.09,5.37.16.43.17.92.26,1.38-.13.07-.26.15-.39.22Z"></path>
  <path class="cls-1" d="M61.69,119.01c.71,2.08,1.39,3.91,1.96,5.77,1.3,4.2,2.57,8.41,3.8,12.63.13.45-.01.99-.03,1.49-.61-.1-1.36-.02-1.8-.34-1.42-1.05-2.2-2.61-2.65-4.27-.79-2.93-1.47-5.89-2.2-8.84-.18-.72-.26-1.49-.55-2.16-.79-1.81.47-2.85,1.46-4.28Z"></path>
  <path class="cls-1" d="M37.82,44.77c-.05-.63-.08-1.04-.11-1.46-.13-2.43-.22-4.87-.4-7.3-.04-.49-.27-1.04-.59-1.43-.55-.67-.2-1,.34-1.3,1.19-.65,2.66-.04,3.28,1.34.52,1.18.45,2.4.31,3.64-.25,2.25-1.32,4.16-2.35,6.1-.05.1-.18.15-.49.4Z"></path>
  <path class="cls-1" d="M31.94,146.47c-.67-.35-1.25-.51-1.62-.88-.52-.51-.98-1.14-1.28-1.8-1.05-2.34-.77-4.74-.03-7.07.49-1.52,1.93-1.91,3.12-1.07.84.6.95,1.07.23,1.83-1.59,1.66-1.89,3.66-1.54,5.79.16.98.66,1.91,1.13,3.2Z"></path>
  <path class="cls-1" d="M48.39,148.14c-.5.04-.88.15-1.22.08-1.39-.3-2.35-1.23-3.09-2.37-.96-1.47-1.53-3.1-1.64-4.87-.06-1.02.54-1.68,1.52-1.72.98-.03,1.54.49,1.47,1.58-.19,2.71.54,5.01,2.7,6.77.06.05.08.16.26.52Z"></path>
  <path class="cls-1" d="M17.38,140.35c-.55-.23-1.18-.36-1.65-.7-1.72-1.26-2.45-3.08-2.58-5.13-.06-.91.05-1.85.25-2.74.2-.86.9-1.2,1.79-1.11.89.09,1.33.77,1.09,1.64-.22.8-.5,1.6-.59,2.42-.18,1.71.34,3.24,1.4,4.59.18.23.32.48.48.72-.07.11-.13.21-.2.32Z"></path>
  <path class="cls-1" d="M56.63,139.43c.09-1.28.23-2.43.22-3.59,0-1.27-.54-2.31-1.56-3.13-.27-.21-.53-.78-.43-1.03.17-.42.6-.92,1.01-1.03.9-.23,1.7.15,2.27.91,1.37,1.84.78,6.21-1.03,7.63-.13.1-.31.15-.48.23Z"></path>
  <path class="cls-1" d="M5.32,133.11c-.85-.33-1.11-1-1.23-1.68-.37-2.11.08-4.06,1.39-5.77.54-.7,1.25-1.2,2.22-1.11.86.08,1.4.73,1.26,1.59-.03.18-.18.43-.32.47-1.84.52-2.5,2-2.91,3.63-.22.89-.27,1.82-.42,2.86Z"></path>
  <path class="cls-1" d="M24.92,98.55c-3.81-3.1-6.96-6.76-9.35-11.04.09-.08.19-.16.28-.24,3.12,3.68,6.24,7.36,9.37,11.04l-.3.24Z"></path>
  <path class="cls-1" d="M36.8,126.17c-.35.5-.51.95-.8,1.09-.34.15-.88.16-1.19-.02-.69-.39-1.34-.89-1.92-1.45-.19-.19-.24-.75-.1-1,.41-.74,1.69-1.04,2.38-.49.62.49,1.06,1.2,1.63,1.87Z"></path>
  <path class="cls-1" d="M47.09,91.5c-1.53-3.22-3.06-6.45-4.41-9.75-2.38-5.81-4.15-11.74-3.38-18.17.61-5.06,2.57-9.34,6.57-12.59.36-.29.72-.6,1.02-.95.16-.19.36-.61.27-.71-.17-.2-.53-.38-.78-.34-.66.1-1.39.19-1.94.52-1.99,1.2-3.95,2.45-5.85,3.78-.69.48-1.14.46-1.81,0-1.72-1.16-3.45-2.32-5.28-3.31-1.06-.58-2.28-1.01-3.48-1.17-4.91-.68-9.3-2.42-12.87-5.93-5.78-5.69-6.8-12.59-5.04-20.18.11-.45.36-.94-.37-1.09-.57-.12-1.11-.22-1.31.58-.19.75-.5,1.47-.71,2.21-1.65,6.03-1.56,12.14-.82,18.28.22,1.87.77,3.73.84,5.6.19,4.84.44,9.65,1.45,14.41,1.09,5.16,2.64,10.15,5.29,14.73,2.36,4.08,5.35,7.68,8.84,10.85,3.93,3.58,8.19,6.63,13.17,8.6.2.08.41.1.62.16-3.99-3-8.25-5.59-11.31-9.61,3.7,1.4,6.96,3.68,10.63,5.09.04-.08.09-.16.13-.23-.88-.77-1.76-1.54-2.64-2.3,2.57.81,4.98,1.86,7.46,2.72,2.5.87,5.06,1.56,7.6,2.33.03-.1.06-.2.09-.3-.66-1.08-1.43-2.11-1.97-3.25ZM9.22,55.68c.21.25.4.53.64.75.59.54,1.16,1.13,1.83,1.54.76.47,1.59.52,2.26-.27.32-.37.74-.5.95.05,1.01,2.67,3.26,3.59,5.76,4.12,1.87.39,3.75.43,5.63-.03,1.29-.32,1.29-.31,1.05-1.59-.03-.14,0-.29,0-.6,2.39.87,4.71.45,7.02-.21.04.08.09.16.13.24-.25.32-.46.69-.77.94-4.6,3.86-9.79,4.92-15.45,2.98-2-.68-3.87-1.81-5.7-2.89-1.86-1.1-2.77-2.96-3.34-5.02ZM12.46,68.88c-.35-.37-.65-.79-.97-1.18.05-.06.1-.13.15-.19.43.2.84.43,1.29.59.8.28,1.53.39,2.13-.48.52-.75.86-.09,1.07.31,1.12,2.13,3.01,3.13,5.24,3.62.41.09.84.07,1.38.11-.09-.65-.16-1.09-.26-1.74.45.2.74.29.98.44,2.21,1.39,4.54,1.18,6.9.53.79-.22,1-.77.67-1.52-.12-.27-.23-.55-.4-.94.34-.02.53-.04.73-.04,1.31.02,2.63.04,3.94.07.37,0,.75.07,1.12.1-.17.37-.25.82-.51,1.1-2.43,2.61-5.52,3.89-8.98,4.46-1.85.3-3.66.12-5.42-.39-3.36-.96-6.57-2.25-9.06-4.85ZM38.44,78.62c-3.98,3.92-8.51,5.88-14.17,4.15-2.68-.82-5.23-1.78-7.11-3.98-.33-.38-.6-.8-.9-1.2.07-.07.14-.14.2-.21.31.17.61.34.92.5.43.23.85.52,1.31.68.53.18.98.08,1.09-.61.11-.69.52-.81.93-.29,2.65,3.35,6.26,3.52,10.06,3.07.52-.06,1.02-.32,1.53-.48,0-.09.01-.18.02-.27-.34-.23-.71-.42-1.02-.69-.18-.16-.27-.43-.4-.65.21-.09.45-.29.64-.26,2.21.46,4.31-.01,6.39-.7.24-.08.56.1.85.16-.11.27-.14.61-.33.79Z"></path>
  <path class="cls-1" d="M63.17,14.96c7.08-1.97,10.51-7.17,9.92-10.57-1.32,1.23-2.58,2.71-4.15,3.75-1.57,1.04-3.44,1.62-5.17,2.4-.06-.08-.13-.16-.19-.24,3.42-2.41,4.87-5.7,4.38-9.89-.25.11-.35.33-.5.53-2.03,2.76-4.59,4.94-7.49,6.74-2.35,1.45-4.73,2.86-7.02,4.38-1.18.78-2.21,1.78-3.29,2.71-.22.19-.35.49-.52.75.06.06.11.11.17.17,2.36-1.21,4.76-2.28,7.47-2.27-.15.19-.34.29-.52.4-2.64,1.56-5.32,3.05-7.9,4.71-2.27,1.45-3.9,3.52-4.95,6.02-.32.77-.62,1.58-1.12,2.24-.3.39-.96.49-1.45.72-.05-.42-.21-.86-.12-1.24.64-2.61,1.73-5.04,3.15-7.31,2.39-3.83,5.19-7.27,9.24-9.48.16-.09.32-.17.68-.36-.79-.44-1.28-.76-1.8-.98-3.93-1.71-8.03-2.68-12.32-2.94-5.9-.36-11.48.63-16.74,3.35-.27.14-.5.37-.83.62.73.47,1.34.83,1.91,1.25,4.9,3.68,7.91,8.73,10.2,14.27.27.65.39,1.37.5,2.07.1.68-.25.88-.91.68-.94-.29-1.22-1.1-1.53-1.87-.95-2.31-2.29-4.36-4.3-5.85-2.19-1.62-4.48-3.11-6.73-4.64-.78-.53-1.6-.99-2.4-1.48.04-.09.09-.17.13-.26,2.61.4,5.01,1.44,7.44,2.56-.26-.55-.55-1.08-.99-1.4-2.8-1.99-5.58-4.03-8.47-5.87-3-1.91-5.89-3.91-8.14-6.71-.45-.56-.89-1.14-1.49-1.9-.25,4.75,1.9,8.04,5.45,10.83-2.34-.47-4.27-1.34-5.97-2.61-1.65-1.23-3.14-2.67-4.69-4.01-.17,2.85,1.29,4.99,3.31,6.87,1.96,1.83,4.16,3.21,6.78,3.91-3.21.41-6.19-.26-9.13-1.83.05.3.04.4.08.48.08.17.17.33.29.47,1.24,1.47,2.63,2.82,4.57,3.19,2.27.44,4.58.82,6.89.9,4.99.17,9.35,1.81,12.99,5.21,1.26,1.18,2.29,2.6,3.4,3.94,2.6,3.13,8.71,4.16,12.25.53.76-.77,1.4-1.65,2.09-2.49,3.51-4.28,8.01-6.61,13.55-6.99,2.34-.16,4.69-.4,7.01-.75,2.22-.33,4.03-1.54,5.6-3.11.29-.3.49-.69.81-1.14-1.72.53-3.21,1.04-4.73,1.43-1.75.45-3.91.45-4.68.12ZM28.54,10.57c-.01-.16-.03-.32-.04-.48.43-.2.84-.46,1.28-.6,3.94-1.27,7.96-1.48,12.03-.83,1.28.2,2.53.58,3.77.96.29.09.5.47.75.72-.33.16-.68.5-1,.47-2.21-.23-4.41-.55-6.62-.81-.6-.07-1.22-.11-1.82-.03-2.11.27-4.22.65-6.34.88-.65.07-1.34-.17-2.01-.27ZM31.53,14.65c1.42-2.09,10.01-2.23,12.19-.17-.86.25-1.51.58-2.16.6-2.69.07-5.38.07-8.08.03-.62,0-1.24-.28-1.95-.46ZM40.31,19.5c-.96.2-1.95.24-2.94.35-.86-.1-1.72-.14-2.56-.33-.29-.06-.5-.47-.75-.71.24-.21.46-.52.74-.6,1.84-.5,3.69-.75,5.56-.14.32.11.57.4.86.61-.3.28-.56.74-.9.81Z"></path>
  <path class="cls-1" d="M60.33,109.75c-.97-2.02-2.31-3.82-4.16-5.05-3.15-2.08-6.45-3.94-9.68-5.9-1.18-.72-2.36-1.44-3.77-2.3.19.45.27.68.38.89.72,1.3,1.43,2.61,2.17,3.9,2.37,4.13,2.7,8.41.77,12.75-1.5,3.36-3.16,6.66-4.77,9.97-.58,1.2-1.21,2.37-1.9,3.51-.3.49-.74.97-1.24,1.23-1.59.84-3.26,1.51-4.84,2.37-.68.37-1.24,1.01-1.78,1.59-.3.32-.25.76.27.84,1.72.27,2.46,1.37,2.7,2.98.04.26.33.47.5.71.21-.16.45-.3.63-.49,2-2.19,3.99-4.39,6.01-6.57.16-.17.48-.19.72-.28.06.23.19.46.16.68-.26,2.28-.54,4.55-.81,6.83-.04.34,0,.69,0,1.23,2.04-1.54,3.73-1.11,5.35.59.07-3.12-1-5.95-1.22-9.18.69.74,1.17,1.31,1.72,1.79.3.27.76.61,1.09.56,1.3-.21,2.45.14,3.61.65.74.32,1.2.05,1.38-.71.21-.87.38-1.76.64-2.62.4-1.31-.03-2.08-1.4-2.16-.82-.05-1.67.06-2.49.22-.8.15-.98-.13-.78-.82.19-.69.39-1.37.61-2.05.97-2.88,2.55-5.29,5.23-6.88,1.09-.65,2.17-1.33,3.22-2.04,2.49-1.69,3-3.55,1.69-6.25ZM49.54,113.84c-.65-.68-1.16-3.16-.94-4.35.78.18,1.67.24,1.91,1.18.31,1.22-.29,2.19-.97,3.17Z"></path>
  <path class="cls-1" d="M41.29,111.01c-.59-2.36-1.57-4.58-3.36-6.23-3.26-2.98-6.66-5.8-10.21-8.87.2.45.27.67.38.86,2.53,4.37,2.75,8.75.3,13.26-1.48,2.73-3.44,5.06-5.39,7.43-1.57,1.91-3.5,2.89-5.89,3.14-.8.08-1.61.14-2.4.25-1.07.14-2.15.25-3.21.49-.75.17-1.45.65-1.43,1.51.04,1.41.23,2.81.36,4.31.25-.16.43-.27.6-.38,1.87-1.16,3.73-2.34,5.62-3.47,1.21-.72,2.51-.59,3.84-.25-2.62,1.35-4.76,3.16-6.49,5.96,2.61-.3,3.79,1.12,4.53,3.14.09-.03.18-.06.27-.09.25-.51.53-1,.76-1.52,1.73-3.9,6.11-5.56,9.93-3.74,1.35.64,1.86.44,2.22-1,.25-1,.56-1.89,1.52-2.43.54-.3.37-.74-.05-.92-.72-.32-1.48-.56-2.25-.72-.52-.11-1.08-.02-1.63-.02,0-.25-.03-.35,0-.42.14-.28.26-.57.45-.81,1.81-2.35,3.99-4.23,6.8-5.31,1.16-.45,2.31-.91,3.43-1.44,1.22-.58,1.62-1.44,1.29-2.74ZM32.43,109.35c-.23.46-.64.82-.97,1.22-.2-.49-.51-.97-.57-1.48-.13-1.03-.12-2.07-.17-3.23,1.98.6,2.54,1.83,1.71,3.48Z"></path>
</svg><style>@media (prefers-color-scheme: light) { :root { filter: contrast(1) brightness(1); } }
@media (prefers-color-scheme: dark) { :root { filter: none; } }
</style></svg>