<?xml version="1.0" encoding="UTF-8"?>
<svg id="Layer_1" data-name="Layer 1" xmlns="http://www.w3.org/2000/svg" version="1.1" viewBox="0 0 430 76.9">
  <defs>
    <style>
      .cls-1 {
        fill: #231f20;
        stroke-width: 0px;
      }
    </style>
  </defs>
  <g>
    <path class="cls-1" d="M38.5,20.6c2.2-2.1,4.8-3.2,7.7-3.2h16.8c.1,0,.2,0,.3.1,0,0,.1.2.1.3v41.4c0,0,0,.2-.1.2,0,0-.2.1-.3.1h-7.7c0,0-.2,0-.2-.1,0,0-.1-.1-.1-.2V24.6h-7c-1,0-1.8.4-2.5,1.1L11.4,59.4c0,0-.2,0-.3,0H.4c-.2,0-.3,0-.3-.2,0-.1,0-.3,0-.4L38.5,20.6Z"/>
    <path class="cls-1" d="M138.6,59.1c0,.1,0,.2-.1.3,0,0-.2.1-.3.1h-7.7c0,0-.2,0-.2-.1,0,0-.1-.2-.1-.3V24.6h-4.6c-1.5,0-2.7.8-3.4,2.4l-11.4,32.2c0,.2-.2.3-.3.3h-6.3c-.1,0-.3,0-.3-.3l-11.3-32.2c-.8-1.6-1.9-2.4-3.4-2.4h-4.6v34.6c0,.1,0,.2-.1.3s-.2.1-.3.1h-7.7c0,0-.2,0-.2-.1,0,0-.1-.2-.1-.3V17.7c0-.1,0-.2.1-.3,0,0,.1-.1.2-.1h15.5c.3,0,.6,0,.8,0,1.6.2,3,.8,4.2,1.8,1.2,1,2.1,2.3,2.6,3.8l7.8,22.4,7.8-22.4c.6-1.5,1.4-2.8,2.6-3.9,1.2-1,2.6-1.6,4.2-1.8.3,0,.5,0,.8,0h15.5c.1,0,.2,0,.3.1,0,0,.1.2.1.3v41.4Z"/>
    <path class="cls-1" d="M151.3,17.7c0,0,0-.2.1-.2,0,0,.1-.1.2-.1h47.8c3.3,0,6.1,1.2,8.5,3.5,2.3,2.3,3.5,5.2,3.5,8.5v4.2c0,3.3-1.2,6.2-3.5,8.5-2.3,2.3-5.2,3.5-8.5,3.5h-39.7v13.5c0,.1,0,.2-.1.3s-.2.1-.3.1h-7.7c0,0-.2,0-.2-.1,0,0-.1-.2-.1-.3V17.7ZM199.4,38.4c1,0,1.8-.4,2.5-1.1.7-.7,1.1-1.6,1.1-2.5v-6.6c0-1-.4-1.9-1.1-2.6-.7-.7-1.5-1.1-2.5-1.1h-39.7v13.9h39.7Z"/>
    <path class="cls-1" d="M232.5,34.8h45.4c.1,0,.2,0,.3.1,0,0,.1.2.1.3v6.5c0,.1,0,.2-.1.3,0,0-.2.1-.3.1h-45.4v6.6c0,1,.4,1.8,1.1,2.6.7.7,1.6,1.1,2.6,1.1h47.8c.1,0,.2,0,.3.1,0,0,.1.1.1.2v6.5c0,.1,0,.2-.1.3,0,0-.2.1-.3.1h-47.8c-3.3,0-6.2-1.2-8.5-3.5-2.3-2.3-3.5-5.2-3.5-8.5v-18c0-3.3,1.2-6.2,3.5-8.5,2.3-2.3,5.2-3.5,8.5-3.5h47.8c.1,0,.2,0,.3.1,0,0,.1.2.1.3v6.5c0,0,0,.2-.1.2,0,0-.2.1-.3.1h-47.8c-1,0-1.9.4-2.6,1.1-.7.7-1.1,1.6-1.1,2.6v6.6Z"/>
    <path class="cls-1" d="M357.2,33.6c0,2.4-.6,4.6-1.9,6.6-1.3,2-3,3.4-5.1,4.4l.2.3,6.7,14.1c0,.1,0,.2,0,.3,0,.1-.2.2-.3.2h-8.6c-.1,0-.3,0-.3-.2l-6.5-13.6h-35.8v13.5c0,0,0,.2-.1.2,0,0-.2.1-.3.1h-7.7c0,0-.2,0-.2-.1,0,0-.1-.1-.1-.2V17.7c0-.1,0-.2.1-.3,0,0,.1-.1.2-.1h47.8c3.3,0,6.1,1.2,8.5,3.5,2.3,2.3,3.5,5.2,3.5,8.5v4.2ZM305.4,38.4h39.7c1,0,1.8-.4,2.5-1.1.7-.7,1.1-1.6,1.1-2.6v-6.6c0-1-.4-1.8-1.1-2.5-.7-.7-1.5-1.1-2.5-1.1h-39.7v13.8Z"/>
    <path class="cls-1" d="M378.2,34.8h45.4c.1,0,.2,0,.3.1,0,0,.1.2.1.3v6.5c0,.1,0,.2-.1.3,0,0-.2.1-.3.1h-45.4v6.6c0,1,.4,1.8,1.1,2.6.7.7,1.6,1.1,2.6,1.1h47.8c.1,0,.2,0,.3.1,0,0,.1.1.1.2v6.5c0,.1,0,.2-.1.3,0,0-.2.1-.3.1h-47.8c-3.3,0-6.2-1.2-8.5-3.5-2.3-2.3-3.5-5.2-3.5-8.5v-18c0-3.3,1.2-6.2,3.5-8.5,2.3-2.3,5.2-3.5,8.5-3.5h47.8c.1,0,.2,0,.3.1,0,0,.1.2.1.3v6.5c0,0,0,.2-.1.2,0,0-.2.1-.3.1h-47.8c-1,0-1.9.4-2.6,1.1-.7.7-1.1,1.6-1.1,2.6v6.6Z"/>
  </g>
  <g>
    <path class="cls-1" d="M253.6,76.9c-1,0-1.8-.3-2.5-1-.7-.7-1-1.5-1-2.5v-8.7s0,0,0,0c0,0,0,0,0,0h2.2s0,0,0,0c0,0,0,0,0,0v9c0,.3.1.5.3.7.2.2.5.3.7.3h4.4v-10.1s0,0,0,0c0,0,0,0,0,0h2.2s0,0,0,0c0,0,0,0,0,0v10.1h4.4c.3,0,.5-.1.7-.3.2-.2.3-.5.3-.7v-9s0,0,0,0c0,0,0,0,0,0h2.2s0,0,0,0c0,0,0,0,0,0v8.7c0,1-.3,1.8-1,2.5s-1.5,1-2.5,1h-11.2Z"/>
    <path class="cls-1" d="M274.4,69.7h13.2s0,0,0,0,0,0,0,0v1.9s0,0,0,0,0,0,0,0h-13.2v1.9c0,.3.1.5.3.7.2.2.5.3.7.3h13.9s0,0,0,0c0,0,0,0,0,0v1.9s0,0,0,0c0,0,0,0,0,0h-13.9c-1,0-1.8-.3-2.5-1-.7-.7-1-1.5-1-2.5v-5.3c0-1,.3-1.8,1-2.5.7-.7,1.5-1,2.5-1h13.9s0,0,0,0c0,0,0,0,0,0v1.9s0,0,0,0c0,0,0,0,0,0h-13.9c-.3,0-.5.1-.7.3-.2.2-.3.5-.3.7v1.9Z"/>
    <path class="cls-1" d="M310.7,68.1v.2c0,1-.3,1.8-1,2.5.7.7,1,1.5,1,2.5v.2c0,1-.3,1.8-1,2.5-.7.7-1.5,1-2.5,1h-13.9s0,0,0,0,0,0,0,0v-12.1s0,0,0,0c0,0,0,0,0,0h13.9c1,0,1.8.3,2.5,1s1,1.5,1,2.5ZM295.7,66.7v3h11.6c.3,0,.5-.1.7-.3s.3-.5.3-.7v-.9c0-.3-.1-.5-.3-.7s-.5-.3-.7-.3h-11.6ZM308.3,73.7v-.9c0-.3-.1-.5-.3-.7s-.5-.3-.7-.3h-11.6v3h11.6c.3,0,.5-.1.7-.3s.3-.5.3-.7Z"/>
    <path class="cls-1" d="M328.4,64.6c1,0,1.8.3,2.5,1,.7.7,1,1.5,1,2.5v5.3c0,1-.3,1.8-1,2.5-.7.7-1.5,1-2.5,1h-13.9s0,0,0,0,0,0,0,0v-12.1s0,0,0,0c0,0,0,0,0,0h13.9ZM329.5,67.8c0-.3-.1-.5-.3-.7-.2-.2-.5-.3-.7-.3h-11.6v8.1h11.6c.3,0,.5-.1.7-.3.2-.2.3-.5.3-.7v-6Z"/>
    <path class="cls-1" d="M338.1,69.7h13.2s0,0,0,0,0,0,0,0v1.9s0,0,0,0,0,0,0,0h-13.2v1.9c0,.3.1.5.3.7.2.2.5.3.7.3h13.9s0,0,0,0c0,0,0,0,0,0v1.9s0,0,0,0c0,0,0,0,0,0h-13.9c-1,0-1.8-.3-2.5-1-.7-.7-1-1.5-1-2.5v-5.3c0-1,.3-1.8,1-2.5.7-.7,1.5-1,2.5-1h13.9s0,0,0,0c0,0,0,0,0,0v1.9s0,0,0,0c0,0,0,0,0,0h-13.9c-.3,0-.5.1-.7.3-.2.2-.3.5-.3.7v1.9Z"/>
    <path class="cls-1" d="M364.1,76c-.6.6-1.4.9-2.2.9h-4.9s0,0,0,0,0,0,0,0v-12.1s0,0,0,0c0,0,0,0,0,0h2.2s0,0,0,0c0,0,0,0,0,0v10.1h2c.3,0,.5-.1.7-.3l9.9-9.8s0,0,0,0h3.1s0,0,0,0c0,0,0,0,0,.1l-11.2,11.2Z"/>
    <path class="cls-1" d="M393.7,68.6c0,.3.1.5.3.7.2.2.4.3.7.3h10.5c1,0,1.8.3,2.5,1,.7.7,1,1.5,1,2.5v.2c0,1-.3,1.8-1,2.5-.7.7-1.5,1-2.5,1h-13.2s0,0,0,0,0,0,0,0v-1.9s0,0,0,0c0,0,0,0,0,0h13.2c.3,0,.5-.1.7-.3.2-.2.3-.5.3-.7v-.9c0-.3-.1-.5-.3-.7-.2-.2-.5-.3-.7-.3h-10.5c-1,0-1.8-.3-2.5-1-.7-.7-1-1.5-1-2.5v-.2c0-1,.3-1.8,1-2.5.7-.7,1.5-1,2.5-1h13.2s0,0,0,0c0,0,0,0,0,0v1.9s0,0,0,0c0,0,0,0,0,0h-13.2c-.3,0-.5.1-.7.3-.2.2-.3.5-.3.7v.9Z"/>
    <path class="cls-1" d="M415,69.7h13.2s0,0,0,0,0,0,0,0v1.9s0,0,0,0,0,0,0,0h-13.2v1.9c0,.3.1.5.3.7.2.2.5.3.7.3h13.9s0,0,0,0c0,0,0,0,0,0v1.9s0,0,0,0c0,0,0,0,0,0h-13.9c-1,0-1.8-.3-2.5-1-.7-.7-1-1.5-1-2.5v-5.3c0-1,.3-1.8,1-2.5.7-.7,1.5-1,2.5-1h13.9s0,0,0,0c0,0,0,0,0,0v1.9s0,0,0,0c0,0,0,0,0,0h-13.9c-.3,0-.5.1-.7.3-.2.2-.3.5-.3.7v1.9Z"/>
  </g>
</svg>