<?xml version="1.0" encoding="UTF-8"?>
<svg id="Layer_1" data-name="Layer 1" xmlns="http://www.w3.org/2000/svg" version="1.1" xmlns:xlink="http://www.w3.org/1999/xlink" viewBox="0 0 738.6 150">
  <defs>
    <style>
      .cls-1 {
        fill: url(#linear-gradient-38);
      }

      .cls-1, .cls-2, .cls-3, .cls-4, .cls-5, .cls-6, .cls-7, .cls-8, .cls-9, .cls-10, .cls-11, .cls-12, .cls-13, .cls-14, .cls-15, .cls-16, .cls-17, .cls-18, .cls-19, .cls-20, .cls-21, .cls-22, .cls-23, .cls-24, .cls-25, .cls-26, .cls-27, .cls-28, .cls-29, .cls-30, .cls-31, .cls-32, .cls-33, .cls-34, .cls-35, .cls-36, .cls-37, .cls-38, .cls-39, .cls-40, .cls-41, .cls-42, .cls-43, .cls-44, .cls-45, .cls-46, .cls-47, .cls-48, .cls-49, .cls-50, .cls-51, .cls-52, .cls-53, .cls-54, .cls-55, .cls-56, .cls-57, .cls-58, .cls-59, .cls-60, .cls-61, .cls-62 {
        stroke-width: 0px;
      }

      .cls-2 {
        fill: url(#linear-gradient-12);
      }

      .cls-3 {
        fill: url(#linear-gradient-17);
      }

      .cls-4 {
        fill: url(#linear-gradient-19);
      }

      .cls-5 {
        fill: url(#linear-gradient-33);
      }

      .cls-6 {
        fill: url(#linear-gradient);
      }

      .cls-7 {
        fill: url(#linear-gradient-57);
      }

      .cls-8 {
        fill: url(#linear-gradient-21);
      }

      .cls-9 {
        fill: url(#linear-gradient-6);
      }

      .cls-10 {
        fill: url(#linear-gradient-42);
      }

      .cls-11 {
        fill: url(#linear-gradient-15);
      }

      .cls-12 {
        fill: url(#linear-gradient-11);
      }

      .cls-13 {
        fill: url(#linear-gradient-5);
      }

      .cls-14 {
        fill: #bda153;
      }

      .cls-15 {
        fill: url(#linear-gradient-31);
      }

      .cls-16 {
        fill: url(#linear-gradient-58);
      }

      .cls-17 {
        fill: url(#linear-gradient-34);
      }

      .cls-18 {
        fill: url(#linear-gradient-41);
      }

      .cls-19 {
        fill: url(#linear-gradient-40);
      }

      .cls-20 {
        fill: url(#linear-gradient-13);
      }

      .cls-21 {
        fill: url(#linear-gradient-23);
      }

      .cls-22 {
        fill: url(#linear-gradient-25);
      }

      .cls-23 {
        fill: url(#linear-gradient-43);
      }

      .cls-24 {
        fill: url(#linear-gradient-16);
      }

      .cls-25 {
        fill: url(#linear-gradient-22);
      }

      .cls-26 {
        fill: url(#linear-gradient-54);
      }

      .cls-27 {
        fill: url(#linear-gradient-55);
      }

      .cls-28 {
        fill: url(#linear-gradient-35);
      }

      .cls-29 {
        fill: url(#linear-gradient-50);
      }

      .cls-30 {
        fill: url(#linear-gradient-32);
      }

      .cls-31 {
        fill: url(#linear-gradient-60);
      }

      .cls-32 {
        fill: url(#linear-gradient-59);
      }

      .cls-33 {
        fill: url(#linear-gradient-20);
      }

      .cls-34 {
        fill: url(#linear-gradient-14);
      }

      .cls-35 {
        fill: url(#linear-gradient-2);
      }

      .cls-36 {
        fill: url(#linear-gradient-52);
      }

      .cls-37 {
        fill: url(#linear-gradient-45);
      }

      .cls-38 {
        fill: url(#linear-gradient-7);
      }

      .cls-39 {
        fill: url(#linear-gradient-39);
      }

      .cls-40 {
        fill: url(#linear-gradient-3);
      }

      .cls-41 {
        fill: url(#linear-gradient-9);
      }

      .cls-42 {
        fill: url(#linear-gradient-27);
      }

      .cls-43 {
        fill: url(#linear-gradient-53);
      }

      .cls-44 {
        fill: url(#linear-gradient-36);
      }

      .cls-45 {
        fill: url(#linear-gradient-48);
      }

      .cls-46 {
        fill: url(#linear-gradient-49);
      }

      .cls-47 {
        fill: url(#linear-gradient-8);
      }

      .cls-48 {
        fill: url(#linear-gradient-47);
      }

      .cls-49 {
        fill: url(#linear-gradient-24);
      }

      .cls-50 {
        fill: url(#linear-gradient-26);
      }

      .cls-51 {
        fill: url(#linear-gradient-61);
      }

      .cls-52 {
        fill: url(#linear-gradient-18);
      }

      .cls-53 {
        fill: url(#linear-gradient-51);
      }

      .cls-54 {
        fill: url(#linear-gradient-30);
      }

      .cls-55 {
        fill: url(#linear-gradient-44);
      }

      .cls-56 {
        fill: url(#linear-gradient-29);
      }

      .cls-57 {
        fill: url(#linear-gradient-46);
      }

      .cls-58 {
        fill: url(#linear-gradient-28);
      }

      .cls-59 {
        fill: url(#linear-gradient-56);
      }

      .cls-60 {
        fill: url(#linear-gradient-10);
      }

      .cls-61 {
        fill: url(#linear-gradient-4);
      }

      .cls-62 {
        fill: url(#linear-gradient-37);
      }
    </style>
    <linearGradient id="linear-gradient" x1="41.8" y1="102.9" x2="718.6" y2="102.9" gradientTransform="translate(0 152) scale(1 -1)" gradientUnits="userSpaceOnUse">
      <stop offset="0" stop-color="#c4a961"/>
      <stop offset=".5" stop-color="#f5eba5"/>
      <stop offset="1" stop-color="#c4a961"/>
    </linearGradient>
    <linearGradient id="linear-gradient-2" x1="41.8" y1="102.9" x2="718.6" y2="102.9" gradientTransform="translate(0 152) scale(1 -1)" gradientUnits="userSpaceOnUse">
      <stop offset="0" stop-color="#c4a961"/>
      <stop offset=".5" stop-color="#f5eba5"/>
      <stop offset="1" stop-color="#c4a961"/>
    </linearGradient>
    <linearGradient id="linear-gradient-3" x1="41.8" y1="102.9" x2="718.6" y2="102.9" gradientTransform="translate(0 152) scale(1 -1)" gradientUnits="userSpaceOnUse">
      <stop offset="0" stop-color="#c4a961"/>
      <stop offset=".5" stop-color="#f5eba5"/>
      <stop offset="1" stop-color="#c4a961"/>
    </linearGradient>
    <linearGradient id="linear-gradient-4" x1="41.8" y1="102.9" x2="718.6" y2="102.9" gradientTransform="translate(0 152) scale(1 -1)" gradientUnits="userSpaceOnUse">
      <stop offset="0" stop-color="#c4a961"/>
      <stop offset=".5" stop-color="#f5eba5"/>
      <stop offset="1" stop-color="#c4a961"/>
    </linearGradient>
    <linearGradient id="linear-gradient-5" x1="41.8" y1="102.9" x2="718.6" y2="102.9" gradientTransform="translate(0 152) scale(1 -1)" gradientUnits="userSpaceOnUse">
      <stop offset="0" stop-color="#c4a961"/>
      <stop offset=".5" stop-color="#f5eba5"/>
      <stop offset="1" stop-color="#c4a961"/>
    </linearGradient>
    <linearGradient id="linear-gradient-6" x1="41.8" y1="102.8" x2="718.6" y2="102.8" gradientTransform="translate(0 152) scale(1 -1)" gradientUnits="userSpaceOnUse">
      <stop offset="0" stop-color="#c4a961"/>
      <stop offset=".5" stop-color="#f5eba5"/>
      <stop offset="1" stop-color="#c4a961"/>
    </linearGradient>
    <linearGradient id="linear-gradient-7" x1="41.8" y1="102.9" x2="718.6" y2="102.9" gradientTransform="translate(0 152) scale(1 -1)" gradientUnits="userSpaceOnUse">
      <stop offset="0" stop-color="#c4a961"/>
      <stop offset=".5" stop-color="#f5eba5"/>
      <stop offset="1" stop-color="#c4a961"/>
    </linearGradient>
    <linearGradient id="linear-gradient-8" x1="41.8" y1="102.8" x2="718.6" y2="102.8" gradientTransform="translate(0 152) scale(1 -1)" gradientUnits="userSpaceOnUse">
      <stop offset="0" stop-color="#c4a961"/>
      <stop offset=".5" stop-color="#f5eba5"/>
      <stop offset="1" stop-color="#c4a961"/>
    </linearGradient>
    <linearGradient id="linear-gradient-9" x1="41.8" y1="102.8" x2="718.6" y2="102.8" gradientTransform="translate(0 152) scale(1 -1)" gradientUnits="userSpaceOnUse">
      <stop offset="0" stop-color="#c4a961"/>
      <stop offset=".5" stop-color="#f5eba5"/>
      <stop offset="1" stop-color="#c4a961"/>
    </linearGradient>
    <linearGradient id="linear-gradient-10" x1="41.8" y1="102.9" x2="718.6" y2="102.9" gradientTransform="translate(0 152) scale(1 -1)" gradientUnits="userSpaceOnUse">
      <stop offset="0" stop-color="#c4a961"/>
      <stop offset=".5" stop-color="#f5eba5"/>
      <stop offset="1" stop-color="#c4a961"/>
    </linearGradient>
    <linearGradient id="linear-gradient-11" x1="41.8" y1="102.9" x2="718.6" y2="102.9" gradientTransform="translate(0 152) scale(1 -1)" gradientUnits="userSpaceOnUse">
      <stop offset="0" stop-color="#c4a961"/>
      <stop offset=".5" stop-color="#f5eba5"/>
      <stop offset="1" stop-color="#c4a961"/>
    </linearGradient>
    <linearGradient id="linear-gradient-12" x1="41.8" y1="102.9" x2="718.6" y2="102.9" gradientTransform="translate(0 152) scale(1 -1)" gradientUnits="userSpaceOnUse">
      <stop offset="0" stop-color="#c4a961"/>
      <stop offset=".5" stop-color="#f5eba5"/>
      <stop offset="1" stop-color="#c4a961"/>
    </linearGradient>
    <linearGradient id="linear-gradient-13" x1="41.8" y1="102.9" x2="718.6" y2="102.9" gradientTransform="translate(0 152) scale(1 -1)" gradientUnits="userSpaceOnUse">
      <stop offset="0" stop-color="#c4a961"/>
      <stop offset=".5" stop-color="#f5eba5"/>
      <stop offset="1" stop-color="#c4a961"/>
    </linearGradient>
    <linearGradient id="linear-gradient-14" x1="41.8" y1="103" x2="718.6" y2="103" gradientTransform="translate(0 152) scale(1 -1)" gradientUnits="userSpaceOnUse">
      <stop offset="0" stop-color="#c4a961"/>
      <stop offset=".5" stop-color="#f5eba5"/>
      <stop offset="1" stop-color="#c4a961"/>
    </linearGradient>
    <linearGradient id="linear-gradient-15" x1="41.8" y1="102.9" x2="718.6" y2="102.9" gradientTransform="translate(0 152) scale(1 -1)" gradientUnits="userSpaceOnUse">
      <stop offset="0" stop-color="#c4a961"/>
      <stop offset=".5" stop-color="#f5eba5"/>
      <stop offset="1" stop-color="#c4a961"/>
    </linearGradient>
    <linearGradient id="linear-gradient-16" x1="41.8" y1="102.8" x2="718.6" y2="102.8" gradientTransform="translate(0 152) scale(1 -1)" gradientUnits="userSpaceOnUse">
      <stop offset="0" stop-color="#c4a961"/>
      <stop offset=".5" stop-color="#f5eba5"/>
      <stop offset="1" stop-color="#c4a961"/>
    </linearGradient>
    <linearGradient id="linear-gradient-17" x1="41.8" y1="102.9" x2="718.6" y2="102.9" gradientTransform="translate(0 152) scale(1 -1)" gradientUnits="userSpaceOnUse">
      <stop offset="0" stop-color="#c4a961"/>
      <stop offset=".5" stop-color="#f5eba5"/>
      <stop offset="1" stop-color="#c4a961"/>
    </linearGradient>
    <linearGradient id="linear-gradient-18" x1="41.8" y1="102.9" x2="718.6" y2="102.9" gradientTransform="translate(0 152) scale(1 -1)" gradientUnits="userSpaceOnUse">
      <stop offset="0" stop-color="#c4a961"/>
      <stop offset=".5" stop-color="#f5eba5"/>
      <stop offset="1" stop-color="#c4a961"/>
    </linearGradient>
    <linearGradient id="linear-gradient-19" x1="41.8" y1="102.9" x2="718.6" y2="102.9" gradientTransform="translate(0 152) scale(1 -1)" gradientUnits="userSpaceOnUse">
      <stop offset="0" stop-color="#c4a961"/>
      <stop offset=".5" stop-color="#f5eba5"/>
      <stop offset="1" stop-color="#c4a961"/>
    </linearGradient>
    <linearGradient id="linear-gradient-20" x1="41.8" y1="102.9" x2="718.6" y2="102.9" gradientTransform="translate(0 152) scale(1 -1)" gradientUnits="userSpaceOnUse">
      <stop offset="0" stop-color="#c4a961"/>
      <stop offset=".5" stop-color="#f5eba5"/>
      <stop offset="1" stop-color="#c4a961"/>
    </linearGradient>
    <linearGradient id="linear-gradient-21" x1="41.8" y1="102.7" x2="718.6" y2="102.7" gradientTransform="translate(0 152) scale(1 -1)" gradientUnits="userSpaceOnUse">
      <stop offset="0" stop-color="#c4a961"/>
      <stop offset=".5" stop-color="#f5eba5"/>
      <stop offset="1" stop-color="#c4a961"/>
    </linearGradient>
    <linearGradient id="linear-gradient-22" x1="41.8" y1="102.9" x2="718.6" y2="102.9" gradientTransform="translate(0 152) scale(1 -1)" gradientUnits="userSpaceOnUse">
      <stop offset="0" stop-color="#c4a961"/>
      <stop offset=".5" stop-color="#f5eba5"/>
      <stop offset="1" stop-color="#c4a961"/>
    </linearGradient>
    <linearGradient id="linear-gradient-23" x1="41.8" y1="102.9" x2="718.6" y2="102.9" gradientTransform="translate(0 152) scale(1 -1)" gradientUnits="userSpaceOnUse">
      <stop offset="0" stop-color="#c4a961"/>
      <stop offset=".5" stop-color="#f5eba5"/>
      <stop offset="1" stop-color="#c4a961"/>
    </linearGradient>
    <linearGradient id="linear-gradient-24" x1="41.8" y1="102.9" x2="718.6" y2="102.9" gradientTransform="translate(0 152) scale(1 -1)" gradientUnits="userSpaceOnUse">
      <stop offset="0" stop-color="#c4a961"/>
      <stop offset=".5" stop-color="#f5eba5"/>
      <stop offset="1" stop-color="#c4a961"/>
    </linearGradient>
    <linearGradient id="linear-gradient-25" x1="41.8" y1="102.9" x2="718.6" y2="102.9" gradientTransform="translate(0 152) scale(1 -1)" gradientUnits="userSpaceOnUse">
      <stop offset="0" stop-color="#c4a961"/>
      <stop offset=".5" stop-color="#f5eba5"/>
      <stop offset="1" stop-color="#c4a961"/>
    </linearGradient>
    <linearGradient id="linear-gradient-26" x1="41.8" y1="102.9" x2="718.6" y2="102.9" gradientTransform="translate(0 152) scale(1 -1)" gradientUnits="userSpaceOnUse">
      <stop offset="0" stop-color="#c4a961"/>
      <stop offset=".5" stop-color="#f5eba5"/>
      <stop offset="1" stop-color="#c4a961"/>
    </linearGradient>
    <linearGradient id="linear-gradient-27" x1="41.8" y1="102.9" x2="718.6" y2="102.9" gradientTransform="translate(0 152) scale(1 -1)" gradientUnits="userSpaceOnUse">
      <stop offset="0" stop-color="#c4a961"/>
      <stop offset=".5" stop-color="#f5eba5"/>
      <stop offset="1" stop-color="#c4a961"/>
    </linearGradient>
    <linearGradient id="linear-gradient-28" x1="41.8" y1="102.9" x2="718.6" y2="102.9" gradientTransform="translate(0 152) scale(1 -1)" gradientUnits="userSpaceOnUse">
      <stop offset="0" stop-color="#c4a961"/>
      <stop offset=".5" stop-color="#f5eba5"/>
      <stop offset="1" stop-color="#c4a961"/>
    </linearGradient>
    <linearGradient id="linear-gradient-29" x1="41.8" y1="102.9" x2="718.6" y2="102.9" gradientTransform="translate(0 152) scale(1 -1)" gradientUnits="userSpaceOnUse">
      <stop offset="0" stop-color="#c4a961"/>
      <stop offset=".5" stop-color="#f5eba5"/>
      <stop offset="1" stop-color="#c4a961"/>
    </linearGradient>
    <linearGradient id="linear-gradient-30" x1="41.8" y1="102.8" x2="718.6" y2="102.8" gradientTransform="translate(0 152) scale(1 -1)" gradientUnits="userSpaceOnUse">
      <stop offset="0" stop-color="#c4a961"/>
      <stop offset=".5" stop-color="#f5eba5"/>
      <stop offset="1" stop-color="#c4a961"/>
    </linearGradient>
    <linearGradient id="linear-gradient-31" x1="41.8" y1="102.9" x2="718.6" y2="102.9" gradientTransform="translate(0 152) scale(1 -1)" gradientUnits="userSpaceOnUse">
      <stop offset="0" stop-color="#c4a961"/>
      <stop offset=".5" stop-color="#f5eba5"/>
      <stop offset="1" stop-color="#c4a961"/>
    </linearGradient>
    <linearGradient id="linear-gradient-32" x1="41.8" y1="102.9" x2="718.6" y2="102.9" gradientTransform="translate(0 152) scale(1 -1)" gradientUnits="userSpaceOnUse">
      <stop offset="0" stop-color="#c4a961"/>
      <stop offset=".5" stop-color="#f5eba5"/>
      <stop offset="1" stop-color="#c4a961"/>
    </linearGradient>
    <linearGradient id="linear-gradient-33" x1="41.8" y1="51.3" x2="718.6" y2="51.3" gradientTransform="translate(0 152) scale(1 -1)" gradientUnits="userSpaceOnUse">
      <stop offset="0" stop-color="#c4a961"/>
      <stop offset=".5" stop-color="#f5eba5"/>
      <stop offset="1" stop-color="#c4a961"/>
    </linearGradient>
    <linearGradient id="linear-gradient-34" x1="41.8" y1="51.5" x2="718.6" y2="51.5" gradientTransform="translate(0 152) scale(1 -1)" gradientUnits="userSpaceOnUse">
      <stop offset="0" stop-color="#c4a961"/>
      <stop offset=".5" stop-color="#f5eba5"/>
      <stop offset="1" stop-color="#c4a961"/>
    </linearGradient>
    <linearGradient id="linear-gradient-35" x1="41.8" y1="51.3" x2="718.6" y2="51.3" gradientTransform="translate(0 152) scale(1 -1)" gradientUnits="userSpaceOnUse">
      <stop offset="0" stop-color="#c4a961"/>
      <stop offset=".5" stop-color="#f5eba5"/>
      <stop offset="1" stop-color="#c4a961"/>
    </linearGradient>
    <linearGradient id="linear-gradient-36" x1="41.8" y1="51.3" x2="718.6" y2="51.3" gradientTransform="translate(0 152) scale(1 -1)" gradientUnits="userSpaceOnUse">
      <stop offset="0" stop-color="#c4a961"/>
      <stop offset=".5" stop-color="#f5eba5"/>
      <stop offset="1" stop-color="#c4a961"/>
    </linearGradient>
    <linearGradient id="linear-gradient-37" x1="41.8" y1="51.3" x2="718.6" y2="51.3" gradientTransform="translate(0 152) scale(1 -1)" gradientUnits="userSpaceOnUse">
      <stop offset="0" stop-color="#c4a961"/>
      <stop offset=".5" stop-color="#f5eba5"/>
      <stop offset="1" stop-color="#c4a961"/>
    </linearGradient>
    <linearGradient id="linear-gradient-38" x1="41.8" y1="51.3" x2="718.6" y2="51.3" gradientTransform="translate(0 152) scale(1 -1)" gradientUnits="userSpaceOnUse">
      <stop offset="0" stop-color="#c4a961"/>
      <stop offset=".5" stop-color="#f5eba5"/>
      <stop offset="1" stop-color="#c4a961"/>
    </linearGradient>
    <linearGradient id="linear-gradient-39" x1="41.8" y1="51.3" x2="718.6" y2="51.3" gradientTransform="translate(0 152) scale(1 -1)" gradientUnits="userSpaceOnUse">
      <stop offset="0" stop-color="#c4a961"/>
      <stop offset=".5" stop-color="#f5eba5"/>
      <stop offset="1" stop-color="#c4a961"/>
    </linearGradient>
    <linearGradient id="linear-gradient-40" x1="41.8" y1="51.3" x2="718.6" y2="51.3" gradientTransform="translate(0 152) scale(1 -1)" gradientUnits="userSpaceOnUse">
      <stop offset="0" stop-color="#c4a961"/>
      <stop offset=".5" stop-color="#f5eba5"/>
      <stop offset="1" stop-color="#c4a961"/>
    </linearGradient>
    <linearGradient id="linear-gradient-41" x1="41.8" y1="51.3" x2="718.6" y2="51.3" gradientTransform="translate(0 152) scale(1 -1)" gradientUnits="userSpaceOnUse">
      <stop offset="0" stop-color="#c4a961"/>
      <stop offset=".5" stop-color="#f5eba5"/>
      <stop offset="1" stop-color="#c4a961"/>
    </linearGradient>
    <linearGradient id="linear-gradient-42" x1="41.8" y1="51.5" x2="718.6" y2="51.5" gradientTransform="translate(0 152) scale(1 -1)" gradientUnits="userSpaceOnUse">
      <stop offset="0" stop-color="#c4a961"/>
      <stop offset=".5" stop-color="#f5eba5"/>
      <stop offset="1" stop-color="#c4a961"/>
    </linearGradient>
    <linearGradient id="linear-gradient-43" x1="41.8" y1="51.3" x2="718.6" y2="51.3" gradientTransform="translate(0 152) scale(1 -1)" gradientUnits="userSpaceOnUse">
      <stop offset="0" stop-color="#c4a961"/>
      <stop offset=".5" stop-color="#f5eba5"/>
      <stop offset="1" stop-color="#c4a961"/>
    </linearGradient>
    <linearGradient id="linear-gradient-44" x1="41.8" y1="51.5" x2="718.6" y2="51.5" gradientTransform="translate(0 152) scale(1 -1)" gradientUnits="userSpaceOnUse">
      <stop offset="0" stop-color="#c4a961"/>
      <stop offset=".5" stop-color="#f5eba5"/>
      <stop offset="1" stop-color="#c4a961"/>
    </linearGradient>
    <linearGradient id="linear-gradient-45" x1="41.8" y1="51.3" x2="718.6" y2="51.3" gradientTransform="translate(0 152) scale(1 -1)" gradientUnits="userSpaceOnUse">
      <stop offset="0" stop-color="#c4a961"/>
      <stop offset=".5" stop-color="#f5eba5"/>
      <stop offset="1" stop-color="#c4a961"/>
    </linearGradient>
    <linearGradient id="linear-gradient-46" x1="41.8" y1="51.3" x2="718.6" y2="51.3" gradientTransform="translate(0 152) scale(1 -1)" gradientUnits="userSpaceOnUse">
      <stop offset="0" stop-color="#c4a961"/>
      <stop offset=".5" stop-color="#f5eba5"/>
      <stop offset="1" stop-color="#c4a961"/>
    </linearGradient>
    <linearGradient id="linear-gradient-47" x1="41.8" y1="51.3" x2="718.6" y2="51.3" gradientTransform="translate(0 152) scale(1 -1)" gradientUnits="userSpaceOnUse">
      <stop offset="0" stop-color="#c4a961"/>
      <stop offset=".5" stop-color="#f5eba5"/>
      <stop offset="1" stop-color="#c4a961"/>
    </linearGradient>
    <linearGradient id="linear-gradient-48" x1="41.8" y1="51.3" x2="718.6" y2="51.3" gradientTransform="translate(0 152) scale(1 -1)" gradientUnits="userSpaceOnUse">
      <stop offset="0" stop-color="#c4a961"/>
      <stop offset=".5" stop-color="#f5eba5"/>
      <stop offset="1" stop-color="#c4a961"/>
    </linearGradient>
    <linearGradient id="linear-gradient-49" x1="41.8" y1="51.3" x2="718.6" y2="51.3" gradientTransform="translate(0 152) scale(1 -1)" gradientUnits="userSpaceOnUse">
      <stop offset="0" stop-color="#c4a961"/>
      <stop offset=".5" stop-color="#f5eba5"/>
      <stop offset="1" stop-color="#c4a961"/>
    </linearGradient>
    <linearGradient id="linear-gradient-50" x1="41.8" y1="51.3" x2="718.6" y2="51.3" gradientTransform="translate(0 152) scale(1 -1)" gradientUnits="userSpaceOnUse">
      <stop offset="0" stop-color="#c4a961"/>
      <stop offset=".5" stop-color="#f5eba5"/>
      <stop offset="1" stop-color="#c4a961"/>
    </linearGradient>
    <linearGradient id="linear-gradient-51" x1="41.8" y1="51.3" x2="718.6" y2="51.3" gradientTransform="translate(0 152) scale(1 -1)" gradientUnits="userSpaceOnUse">
      <stop offset="0" stop-color="#c4a961"/>
      <stop offset=".5" stop-color="#f5eba5"/>
      <stop offset="1" stop-color="#c4a961"/>
    </linearGradient>
    <linearGradient id="linear-gradient-52" x1="41.8" y1="51.3" x2="718.6" y2="51.3" gradientTransform="translate(0 152) scale(1 -1)" gradientUnits="userSpaceOnUse">
      <stop offset="0" stop-color="#c4a961"/>
      <stop offset=".5" stop-color="#f5eba5"/>
      <stop offset="1" stop-color="#c4a961"/>
    </linearGradient>
    <linearGradient id="linear-gradient-53" x1="41.8" y1="51.3" x2="718.6" y2="51.3" gradientTransform="translate(0 152) scale(1 -1)" gradientUnits="userSpaceOnUse">
      <stop offset="0" stop-color="#c4a961"/>
      <stop offset=".5" stop-color="#f5eba5"/>
      <stop offset="1" stop-color="#c4a961"/>
    </linearGradient>
    <linearGradient id="linear-gradient-54" x1="41.8" y1="51.3" x2="718.6" y2="51.3" gradientTransform="translate(0 152) scale(1 -1)" gradientUnits="userSpaceOnUse">
      <stop offset="0" stop-color="#c4a961"/>
      <stop offset=".5" stop-color="#f5eba5"/>
      <stop offset="1" stop-color="#c4a961"/>
    </linearGradient>
    <linearGradient id="linear-gradient-55" x1="41.8" y1="51.5" x2="718.6" y2="51.5" gradientTransform="translate(0 152) scale(1 -1)" gradientUnits="userSpaceOnUse">
      <stop offset="0" stop-color="#c4a961"/>
      <stop offset=".5" stop-color="#f5eba5"/>
      <stop offset="1" stop-color="#c4a961"/>
    </linearGradient>
    <linearGradient id="linear-gradient-56" x1="41.8" y1="51.3" x2="718.6" y2="51.3" gradientTransform="translate(0 152) scale(1 -1)" gradientUnits="userSpaceOnUse">
      <stop offset="0" stop-color="#c4a961"/>
      <stop offset=".5" stop-color="#f5eba5"/>
      <stop offset="1" stop-color="#c4a961"/>
    </linearGradient>
    <linearGradient id="linear-gradient-57" x1="41.8" y1="50.9" x2="718.6" y2="50.9" gradientTransform="translate(0 152) scale(1 -1)" gradientUnits="userSpaceOnUse">
      <stop offset="0" stop-color="#c4a961"/>
      <stop offset=".5" stop-color="#f5eba5"/>
      <stop offset="1" stop-color="#c4a961"/>
    </linearGradient>
    <linearGradient id="linear-gradient-58" x1="41.8" y1="51.5" x2="718.6" y2="51.5" gradientTransform="translate(0 152) scale(1 -1)" gradientUnits="userSpaceOnUse">
      <stop offset="0" stop-color="#c4a961"/>
      <stop offset=".5" stop-color="#f5eba5"/>
      <stop offset="1" stop-color="#c4a961"/>
    </linearGradient>
    <linearGradient id="linear-gradient-59" x1="41.8" y1="51.3" x2="718.6" y2="51.3" gradientTransform="translate(0 152) scale(1 -1)" gradientUnits="userSpaceOnUse">
      <stop offset="0" stop-color="#c4a961"/>
      <stop offset=".5" stop-color="#f5eba5"/>
      <stop offset="1" stop-color="#c4a961"/>
    </linearGradient>
    <linearGradient id="linear-gradient-60" x1="41.8" y1="51.3" x2="718.6" y2="51.3" gradientTransform="translate(0 152) scale(1 -1)" gradientUnits="userSpaceOnUse">
      <stop offset="0" stop-color="#c4a961"/>
      <stop offset=".5" stop-color="#f5eba5"/>
      <stop offset="1" stop-color="#c4a961"/>
    </linearGradient>
    <linearGradient id="linear-gradient-61" x1="41.8" y1="51.3" x2="718.6" y2="51.3" gradientTransform="translate(0 152) scale(1 -1)" gradientUnits="userSpaceOnUse">
      <stop offset="0" stop-color="#c4a961"/>
      <stop offset=".5" stop-color="#f5eba5"/>
      <stop offset="1" stop-color="#c4a961"/>
    </linearGradient>
  </defs>
  <g id="Option_2" data-name="Option 2">
    <rect class="cls-14" x="4.3" width="10" height="150"/>
    <g>
      <g>
        <path class="cls-6" d="M67.3,41.4l-5,2c-.8-2.3-2-3.3-3.9-3.3s-1.5.3-2.1.8c-.5.5-.8,1.1-.8,1.8s.3,1.4.9,1.8c.6.5,1.8,1.1,3.8,1.8,1.8.6,3.2,1.4,4.1,2,1.1.6,1.8,1.5,2.4,2.6.6,1.1.9,2.4.9,3.8,0,2.6-.9,4.7-2.6,6.2-1.8,1.7-4.1,2.4-7.1,2.4-5,0-8.2-2.6-9.5-7.6l5.3-1.5c.6,2.7,2.1,4.1,4.4,4.1s1.8-.3,2.6-.8c.6-.6.9-1.2.9-2.1s-.2-1.2-.6-1.8c-.5-.5-1.5-1.1-3.2-1.7-2.1-.8-3.6-1.4-4.7-2-1.1-.6-1.8-1.5-2.6-2.6-.6-1.1-1.1-2.4-1.1-3.8,0-2.4.8-4.4,2.4-6,1.5-1.5,3.6-2.4,6.2-2.4,4.7,0,7.7,2.1,8.9,6.4h.3Z"/>
        <path class="cls-35" d="M90.2,49.1c0,9.4-3.3,14.1-9.8,14.1s-5.7-1.2-7.4-3.6c-1.7-2.4-2.6-5.9-2.6-10.4,0-9.4,3.3-14.1,9.8-14.1s5.7,1.2,7.4,3.5,2.6,5.9,2.6,10.6h0ZM83.9,49.1c0-3.6-.3-6-.9-7.4-.6-1.2-1.5-1.8-2.7-1.8s-2.1.6-2.7,1.8c-.6,1.2-.9,3.6-.9,7.3s.3,6,.9,7.3,1.5,2,2.7,2,2.1-.6,2.7-1.8.9-3.6.9-7.4v.2Z"/>
        <path class="cls-40" d="M107.6,52.9l5.6.3c-.2,3-1.2,5.3-2.9,7.3-1.7,1.8-3.9,2.7-6.7,2.7s-5.9-1.2-7.7-3.8c-1.8-2.6-2.6-5.9-2.6-10.3s.9-7.9,2.6-10.3c1.8-2.4,4.4-3.8,7.7-3.8,5.7,0,8.8,3.5,9.2,10.6l-5.4.5c0-4.1-1.4-6-3.8-6s-2.3.6-3,2c-.8,1.4-1.1,3.8-1.1,7.6s.3,5.6,1.1,7c.6,1.2,1.7,1.8,3,1.8,2.1,0,3.5-1.8,3.8-5.4h.2Z"/>
        <path class="cls-61" d="M116.7,35.5h6v27.2h-6v-27.2Z"/>
        <path class="cls-13" d="M127.9,35.5h16.6v4.7h-10.6v6.4h8.2v4.7h-8.2v6.7h10.6v4.8h-16.6v-27.2Z"/>
        <path class="cls-9" d="M147.4,35.5h6.5c2.7,0,5.1.3,6.8,1.1,1.8.8,3.2,2.1,4.2,4.2,1.1,2,1.5,4.7,1.5,8.2s-.3,4.7-.9,6.5c-.6,1.8-1.5,3.3-2.6,4.5-1.1,1.1-2.3,1.8-3.5,2.3-1.4.3-2.9.6-4.8.6h-7.1v-27.2l-.2-.2ZM153.5,40.2v17.8h1.1c1.4,0,2.4-.3,3.2-.8.8-.6,1.4-1.5,1.8-2.7.5-1.4.8-3.2.8-5.7s-.3-4.1-.8-5.3c-.5-1.2-1.1-2.1-1.8-2.6s-1.8-.6-3-.6h-1.1l-.2-.2Z"/>
        <path class="cls-38" d="M174.9,35.5h6l7.7,27.2h-6.2l-1.4-5.6h-7.7l-1.4,5.6h-5.4l8.2-27.2h.2ZM180.2,52.4l-2.7-11.2-2.6,11.2h5.4-.2Z"/>
        <path class="cls-47" d="M191.1,35.5h6.5c2.7,0,5.1.3,6.8,1.1,1.8.8,3.2,2.1,4.2,4.2,1.1,2.1,1.5,4.7,1.5,8.2s-.3,4.7-.9,6.5c-.6,1.8-1.5,3.3-2.6,4.5-1.1,1.1-2.3,1.8-3.5,2.3-1.4.3-2.9.6-4.8.6h-7.1v-27.2l-.2-.2ZM197,40.2v17.8h1.1c1.4,0,2.4-.3,3.2-.8.8-.6,1.4-1.5,1.8-2.7.5-1.4.8-3.2.8-5.7s-.3-4.1-.8-5.3c-.5-1.2-1.1-2.1-1.8-2.6-.8-.5-1.8-.6-3-.6h-1.1l-.2-.2Z"/>
        <path class="cls-41" d="M221.7,35.5h6.5c2.7,0,5,.3,6.8,1.1,1.8.8,3.2,2.1,4.2,4.2,1.1,2,1.5,4.7,1.5,8.2s-.3,4.7-.9,6.5c-.6,2-1.5,3.3-2.6,4.5-1.1,1.1-2.3,1.8-3.5,2.3-1.4.3-2.9.6-4.8.6h-7.1v-27.2l-.2-.2ZM227.7,40.2v17.8h1.1c1.4,0,2.4-.3,3.2-.8.8-.6,1.4-1.5,1.8-2.7.5-1.4.8-3.2.8-5.7s-.3-4.1-.8-5.3c-.5-1.2-1.1-2.1-1.8-2.6s-1.8-.6-3-.6h-1.1l-.2-.2Z"/>
        <path class="cls-60" d="M244.6,35.5h16.6v4.7h-10.6v6.4h8.2v4.7h-8.2v6.7h10.6v4.8h-16.6v-27.2Z"/>
        <path class="cls-12" d="M276.6,35.5h6l7.7,27.2h-6l-1.4-5.6h-7.7l-1.4,5.6h-5.4l8.2-27.2ZM281.8,52.4l-2.7-11.2-2.6,11.2h5.4-.2Z"/>
        <path class="cls-2" d="M292.7,35.5h9.4c2.1,0,3.8.2,5,.5,1.1.3,2.1,1.1,2.7,2.3.8,1.2,1.1,2.6,1.1,4.4,0,3-1.4,5-3.9,5.9,3,1.1,4.7,3.3,4.7,6.7s-.5,3.3-1.2,4.5c-.9,1.2-1.8,2-3.2,2.4-1.2.5-3,.6-5.3.6h-9.4v-27.2h.2ZM298.5,46.5h2c2,0,3.2-.3,3.6-1.1.5-.8.8-1.5.8-2.4s-.3-1.5-.8-2.3c-.5-.6-1.5-.9-3.2-.9h-2.4v6.7h0ZM298.5,58.2h2.9c2.7,0,4.1-1.2,4.1-3.6s-.3-2.3-1.1-2.7c-.8-.5-1.7-.8-3.2-.8h-2.9v7.1h.2Z"/>
        <path class="cls-20" d="M334.3,49.1c0,9.4-3.3,14.1-9.8,14.1s-5.7-1.2-7.4-3.6c-1.7-2.4-2.6-5.9-2.6-10.4,0-9.4,3.3-14.1,9.8-14.1s5.7,1.2,7.4,3.5,2.6,5.9,2.6,10.6h0ZM328.1,49.1c0-3.6-.3-6-.9-7.4-.6-1.2-1.5-1.8-2.7-1.8s-2.1.6-2.7,1.8c-.6,1.2-.9,3.6-.9,7.3s.3,6,.9,7.3,1.5,2,2.7,2,2.1-.6,2.7-1.8.9-3.6.9-7.4v.2Z"/>
        <path class="cls-34" d="M348.1,48.2h9.5v14.5h-2.6l-.8-3.2c-1.5,2.4-3.6,3.5-6.7,3.5s-5.6-1.2-7.4-3.6-2.7-5.7-2.7-9.8.9-8,2.7-10.6c1.8-2.6,4.4-3.9,7.9-3.9,5.6,0,8.8,3.2,9.4,9.4l-5.4.9c-.3-3.6-1.7-5.3-3.9-5.3s-2.4.6-3.2,2c-.8,1.4-1.2,3.8-1.2,7.6s.5,5.6,1.2,7c.8,1.4,2,2,3.5,2,2.4,0,3.6-1.8,3.6-5.4h-4.1v-4.7l.2-.2Z"/>
        <path class="cls-11" d="M368,35.5h6l7.7,27.2h-6.2l-1.4-5.6h-7.7l-1.4,5.6h-5.4l8.2-27.2h.2ZM373.2,52.4l-2.7-11.2-2.6,11.2h5.4-.2Z"/>
        <path class="cls-24" d="M384.1,35.5h6.5c2.7,0,5.1.3,6.8,1.1,1.8.8,3.2,2.1,4.2,4.2,1.1,2.1,1.5,4.7,1.5,8.2s-.3,4.7-.9,6.5c-.6,2-1.5,3.3-2.6,4.5-1.1,1.1-2.3,1.8-3.5,2.3-1.4.3-2.9.6-4.8.6h-7.1v-27.2l-.2-.2ZM390.1,40.2v17.8h1.1c1.4,0,2.4-.3,3.2-.8.8-.6,1.4-1.5,1.8-2.7.5-1.4.8-3.2.8-5.7s-.3-4.1-.8-5.3c-.5-1.2-1.1-2.1-1.8-2.6s-1.8-.6-3-.6h-1.1l-.2-.2Z"/>
        <path class="cls-3" d="M425.8,49.1c0,9.4-3.3,14.1-9.8,14.1s-5.7-1.2-7.4-3.6-2.6-5.9-2.6-10.4c0-9.4,3.3-14.1,9.8-14.1s5.7,1.2,7.4,3.5,2.6,5.9,2.6,10.6h0ZM419.6,49.1c0-3.6-.3-6-.9-7.4-.6-1.2-1.5-1.8-2.7-1.8s-2.1.6-2.7,1.8c-.6,1.2-.9,3.6-.9,7.3s.3,6,.9,7.3c.6,1.2,1.5,2,2.7,2s2.1-.6,2.7-1.8.9-3.6.9-7.4v.2Z"/>
        <path class="cls-52" d="M446.7,41.4l-5,2c-.8-2.3-2-3.3-3.9-3.3s-1.5.3-2.1.8c-.5.5-.8,1.1-.8,1.8s.3,1.4.9,1.8c.6.5,1.8,1.1,3.8,1.8,1.8.6,3.2,1.4,4.1,2,1.1.6,1.8,1.5,2.4,2.6.6,1.1.9,2.4.9,3.8,0,2.6-.9,4.7-2.6,6.2-1.8,1.7-4.1,2.4-7.1,2.4-5,0-8.2-2.6-9.5-7.6l5.3-1.5c.6,2.7,2.1,4.1,4.4,4.1s1.8-.3,2.6-.8c.6-.6.9-1.2.9-2.1s-.2-1.2-.6-1.8c-.5-.5-1.5-1.1-3.2-1.7-2.1-.8-3.6-1.4-4.7-2-1.1-.6-1.8-1.5-2.6-2.6-.6-1.1-1.1-2.4-1.1-3.8,0-2.4.8-4.4,2.4-6,1.5-1.5,3.6-2.4,6.2-2.4,4.7,0,7.7,2.1,8.9,6.4h.3Z"/>
        <path class="cls-4" d="M458.5,35.5h16.6v4.7h-10.6v6.4h8.2v4.7h-8.2v6.7h10.6v4.8h-16.6v-27.2Z"/>
        <path class="cls-33" d="M494.8,41.4l-5,2c-.8-2.3-2-3.3-3.9-3.3s-1.5.3-2.1.8c-.5.5-.8,1.1-.8,1.8s.3,1.4.9,1.8c.6.5,1.8,1.1,3.8,1.8,1.8.6,3.2,1.4,4.1,2s1.8,1.5,2.4,2.6c.6,1.1.9,2.4.9,3.8,0,2.6-.9,4.7-2.6,6.2-1.8,1.7-4.1,2.4-7.1,2.4-5,0-8.2-2.6-9.5-7.6l5.3-1.5c.6,2.7,2.1,4.1,4.4,4.1s1.8-.3,2.6-.8c.6-.6.9-1.2.9-2.1s-.3-1.2-.6-1.8c-.5-.5-1.5-1.1-3.2-1.7-2.1-.8-3.6-1.4-4.7-2-1.1-.6-1.8-1.5-2.6-2.6-.6-1.1-1.1-2.4-1.1-3.8,0-2.4.8-4.4,2.4-6,1.5-1.5,3.6-2.4,6.2-2.4,4.7,0,7.7,2.1,8.9,6.4h.3Z"/>
        <path class="cls-8" d="M499,35.5h7.9c2.4,0,4.2.2,5.6.6,1.4.5,2.4,1.4,3.3,2.7.9,1.4,1.4,3.2,1.4,5.3s-.3,3.6-1.1,5c-.8,1.4-1.7,2.3-3,2.9-1.2.6-3.2.9-5.9.9h-2.1v10.1h-6v-27.5ZM504.9,39.9v8h1.8c1.7,0,2.7-.5,3.2-1.2.5-.8.8-1.8.8-3s-.2-1.8-.6-2.4c-.3-.6-.8-1.1-1.2-1.2s-1.2-.3-2.1-.3h-1.8v.2Z"/>
        <path class="cls-25" d="M519.9,35.5h16.6v4.7h-10.6v6.4h8.2v4.7h-8.2v6.7h10.6v4.8h-16.6v-27.2Z"/>
        <path class="cls-21" d="M552.7,52.9l5.6.3c-.2,3-1.2,5.3-2.9,7.3-1.7,1.8-3.9,2.7-6.7,2.7s-5.9-1.2-7.7-3.8c-1.8-2.6-2.6-5.9-2.6-10.3s.9-7.9,2.6-10.3c1.8-2.4,4.4-3.8,7.7-3.8,5.7,0,8.8,3.5,9.2,10.6l-5.4.5c0-4.1-1.4-6-3.8-6s-2.3.6-3,2c-.8,1.4-1.1,3.8-1.1,7.6s.3,5.6,1.1,7c.6,1.2,1.7,1.8,3,1.8,2.1,0,3.5-1.8,3.8-5.4h.2Z"/>
        <path class="cls-49" d="M561.6,35.5h6v27.2h-6v-27.2Z"/>
        <path class="cls-22" d="M577.7,35.5h6l7.7,27.2h-6.2l-1.4-5.6h-7.7l-1.4,5.6h-5.4l8.2-27.2h.2ZM582.8,52.4l-2.7-11.2-2.6,11.2h5.4-.2Z"/>
        <path class="cls-50" d="M593.7,35.5h6v22.1h8.8v5.1h-14.8v-27.2Z"/>
        <path class="cls-42" d="M611.1,35.5h6v27.2h-6v-27.2Z"/>
        <path class="cls-58" d="M620.6,35.5h17.5v4.2l-11.3,18.1h11.8v4.8h-18.8v-4.2l11.5-18.1h-10.6v-4.8h-.2Z"/>
        <path class="cls-56" d="M645.9,35.5h6l7.7,27.2h-6l-1.4-5.6h-7.7l-1.4,5.6h-5.4l8.2-27.2ZM651.1,52.4l-2.7-11.2-2.6,11.2h5.4-.2Z"/>
        <path class="cls-54" d="M662,35.5h6.5c2.7,0,5.1.3,6.8,1.1,1.8.8,3.2,2.1,4.2,4.2,1.1,2.1,1.5,4.7,1.5,8.2s-.3,4.7-.9,6.5c-.6,1.8-1.5,3.3-2.6,4.5-1.1,1.1-2.3,1.8-3.5,2.3-1.4.3-2.9.6-4.8.6h-7.1v-27.2l-.2-.2ZM667.9,40.2v17.8h1.1c1.4,0,2.4-.3,3.2-.8.8-.6,1.4-1.5,1.8-2.7.5-1.4.8-3.2.8-5.7s-.3-4.1-.8-5.3c-.5-1.2-1.1-2.1-1.8-2.6s-1.8-.6-3-.6h-1.1l-.2-.2Z"/>
        <path class="cls-15" d="M703.8,49.1c0,9.4-3.3,14.1-9.8,14.1s-5.7-1.2-7.4-3.6c-1.7-2.4-2.6-5.9-2.6-10.4,0-9.4,3.3-14.1,9.8-14.1s5.7,1.2,7.4,3.5c1.7,2.3,2.6,5.9,2.6,10.6h0ZM697.4,49.1c0-3.6-.3-6-.9-7.4-.6-1.2-1.5-1.8-2.7-1.8s-2.1.6-2.7,1.8c-.6,1.2-.9,3.6-.9,7.3s.3,6,.9,7.3c.6,1.2,1.5,2,2.7,2s2.1-.6,2.7-1.8.9-3.6.9-7.4v.2Z"/>
        <path class="cls-30" d="M724.6,41.4l-5,2c-.8-2.3-2-3.3-3.9-3.3s-1.5.3-2.1.8c-.5.5-.8,1.1-.8,1.8s.3,1.4.9,1.8c.6.5,1.8,1.1,3.8,1.8,1.8.6,3.2,1.4,4.1,2,.9.6,1.8,1.5,2.4,2.6.6,1.1.9,2.4.9,3.8,0,2.6-.9,4.7-2.6,6.2-1.8,1.7-4.1,2.4-7.1,2.4-5,0-8.2-2.6-9.5-7.6l5.3-1.5c.6,2.7,2.1,4.1,4.4,4.1s1.8-.3,2.6-.8c.6-.6.9-1.2.9-2.1s-.3-1.2-.6-1.8c-.5-.5-1.5-1.1-3.2-1.7-2.1-.8-3.6-1.4-4.7-2-1.1-.6-1.8-1.5-2.6-2.6-.6-1.1-1.1-2.4-1.1-3.8,0-2.4.8-4.4,2.4-6,1.5-1.5,3.6-2.4,6.2-2.4,4.7,0,7.7,2.1,8.9,6.4h.3Z"/>
      </g>
      <g>
        <path class="cls-5" d="M50.6,87.1h6.2c3,0,5.3.5,7.1,1.5s3.2,2.6,4.1,4.7c.9,2.1,1.4,4.4,1.4,7s-.5,5-1.2,7.1c-.8,2.1-2.1,3.8-3.8,5s-4.1,2-7.3,2h-6.5v-27.2h0ZM55.2,90.7v20h1.8c2.6,0,4.5-.9,5.7-2.7,1.2-1.8,1.8-4.2,1.8-7.3,0-6.7-2.6-10-7.6-10h-1.8Z"/>
        <path class="cls-17" d="M73.6,87.1h15.6v3.6h-11v7.7h8.8v3.6h-8.8v8.5h11.3v3.6h-15.7v-27.2l-.2.2Z"/>
        <path class="cls-28" d="M100.1,87.1h4.5v23.4h9.7v3.8h-14.2v-27.2Z"/>
        <path class="cls-44" d="M121.8,87.1h5l7.3,27.2h-4.5l-1.7-6.8h-8l-1.7,6.8h-4.2l7.9-27.2ZM127,104l-3.2-12.6-3,12.6h6.2Z"/>
        <path class="cls-62" d="M142.7,87.1h16.3v3.2l-12.1,20.3h12.4v3.8h-17.4v-3.5l11.9-20.1h-11.2v-3.6h0Z"/>
        <path class="cls-1" d="M180.7,100.7c0,4.7-.9,8.2-2.4,10.6-1.7,2.4-4.1,3.6-7.3,3.6s-5.6-1.2-7.3-3.6-2.6-5.9-2.6-10.6.9-8.2,2.6-10.6,4.1-3.6,7.3-3.6,5.6,1.2,7.3,3.6c1.7,2.4,2.6,5.9,2.6,10.6h-.2ZM176,100.7c0-3.2-.3-5.7-1.1-7.7-.8-1.8-2.1-2.7-3.9-2.7s-3.2.9-3.9,2.9c-.8,1.8-1.1,4.4-1.1,7.6s.3,5.7,1.1,7.6c.8,2,2.1,2.9,4.1,2.9s3.2-.9,3.9-2.7c.8-1.8,1.2-4.4,1.2-7.7h-.3Z"/>
        <path class="cls-39" d="M184.8,87.1h5.3l8.9,19.7v-19.7h3.8v27.2h-4.2l-10.1-21.8v21.8h-3.8v-27.2h.2Z"/>
        <path class="cls-19" d="M213.5,87.1h5l7.3,27.2h-4.5l-1.7-6.8h-8l-1.7,6.8h-4.2l7.9-27.2ZM218.8,104l-3.2-12.6-3,12.6h6.2Z"/>
        <path class="cls-18" d="M236.2,87.1h6.7l5.4,19.7,5.6-19.7h6.4v27.2h-4.2v-23.3l-6.5,23.3h-3.3l-6.4-23.3v23.3h-3.8v-27.2h.2Z"/>
        <path class="cls-10" d="M265.5,87.1h15.6v3.6h-11v7.7h8.8v3.6h-8.8v8.5h11.3v3.6h-15.7v-27.2l-.2.2Z"/>
        <path class="cls-23" d="M281.1,87.1h16.6v3.8h-6v23.4h-4.5v-23.4h-6v-3.8Z"/>
        <path class="cls-55" d="M299.7,87.1h8.2c3,0,5.1.6,6.5,2,1.4,1.4,2.1,3.3,2.1,5.7s-1.4,5.7-4.2,7.1l5.1,12.2h-4.8l-4.2-11.3h-4.2v11.3h-4.5v-27.2l.2.2ZM304.2,90.6v8.9h3.5c1.5,0,2.7-.5,3.3-1.2s1.1-2,1.1-3.3c0-2.9-1.5-4.2-4.4-4.2h-3.5v-.2Z"/>
        <path class="cls-37" d="M339.6,100.7c0,4.7-.8,8.2-2.6,10.6-1.7,2.4-4.1,3.6-7.3,3.6s-5.6-1.2-7.3-3.6c-1.7-2.4-2.6-5.9-2.6-10.6s.9-8.2,2.6-10.6c1.7-2.4,4.1-3.6,7.3-3.6s5.6,1.2,7.3,3.6c1.7,2.4,2.6,5.9,2.6,10.6ZM334.8,100.7c0-3.2-.3-5.7-1.1-7.7-.8-1.8-2.1-2.7-3.9-2.7s-3.2.9-3.9,2.9c-.8,2-1.1,4.4-1.1,7.6s.3,5.7,1.1,7.6,2.1,2.9,4.1,2.9,3.2-.9,3.9-2.7c.8-1.8,1.2-4.4,1.2-7.7h-.3Z"/>
        <path class="cls-57" d="M343.9,87.1h6.8c2.1,0,3.9.2,5.3.6,1.4.5,2.4,1.4,3.3,2.7.9,1.4,1.4,3,1.4,5s-.3,3.3-1.1,4.7c-.8,1.4-1.8,2.3-3,2.7-1.2.5-3.2.9-5.7.9h-2.3v10.6h-4.5v-27.2h-.2ZM348.4,90.6v9.5h2.3c2,0,3.3-.3,4.1-1.1.8-.8,1.2-2,1.2-3.6s-.3-2.3-.8-3c-.5-.8-1.1-1.2-1.7-1.5-.6-.3-1.5-.3-2.9-.3h-2.3Z"/>
        <path class="cls-48" d="M382.7,100.7c0,4.7-.8,8.2-2.6,10.6-1.7,2.4-4.1,3.6-7.3,3.6s-5.6-1.2-7.3-3.6-2.6-5.9-2.6-10.6.9-8.2,2.6-10.6,4.1-3.6,7.3-3.6,5.6,1.2,7.3,3.6c1.7,2.4,2.6,5.9,2.6,10.6ZM378,100.7c0-3.2-.3-5.7-1.1-7.7-.8-1.8-2.1-2.7-3.9-2.7s-3.2.9-3.9,2.9c-.8,2-1.1,4.4-1.1,7.6s.3,5.7,1.1,7.6c.8,1.8,2.1,2.9,4.1,2.9s3.2-.9,3.9-2.7c.8-1.8,1.2-4.4,1.2-7.7h-.3Z"/>
        <path class="cls-45" d="M387.1,87.1h4.5v23.4h9.7v3.8h-14.2v-27.2Z"/>
        <path class="cls-46" d="M403.7,87.1h4.5v27.2h-4.5v-27.2Z"/>
        <path class="cls-29" d="M410.2,87.1h16.6v3.8h-6v23.4h-4.5v-23.4h-6v-3.8Z"/>
        <path class="cls-53" d="M433.1,87.1h5l7.3,27.2h-4.5l-1.7-6.8h-8l-1.7,6.8h-4.2l7.9-27.2h0ZM438.2,104l-3.2-12.6-3,12.6h6.2Z"/>
        <path class="cls-36" d="M448,87.1h5.3l8.9,19.7v-19.7h3.8v27.2h-4.2l-10.1-21.8v21.8h-3.8v-27.2h.2Z"/>
        <path class="cls-43" d="M476.8,87.1h5l7.3,27.2h-4.5l-1.7-6.8h-8l-1.7,6.8h-4.2l7.9-27.2h0ZM481.9,104l-3.2-12.6-3,12.6h6.2Z"/>
        <path class="cls-26" d="M499.5,87.1h6.2c3,0,5.3.5,7.1,1.5s3.2,2.6,4.1,4.7c.9,2.1,1.4,4.4,1.4,7s-.5,5-1.2,7.1c-.8,2.1-2.1,3.8-3.8,5-1.7,1.2-4.1,2-7.3,2h-6.5v-27.2h0ZM504,90.7v20h1.8c2.6,0,4.5-.9,5.7-2.7,1.2-1.8,1.8-4.2,1.8-7.3,0-6.7-2.6-10-7.6-10h-1.8Z"/>
        <path class="cls-27" d="M522.5,87.1h15.6v3.6h-11v7.7h8.8v3.6h-8.8v8.5h11.3v3.6h-15.7v-27.2l-.2.2Z"/>
        <path class="cls-59" d="M548.9,87.1h6.8c2.1,0,3.9.2,5.3.6,1.4.5,2.4,1.4,3.3,2.7s1.4,3,1.4,5-.3,3.3-1.1,4.7c-.8,1.4-1.8,2.3-3,2.7-1.2.6-3.2.9-5.7.9h-2.3v10.6h-4.5v-27.2h-.2ZM553.3,90.6v9.5h2.3c2,0,3.3-.3,4.1-1.1.8-.8,1.2-2,1.2-3.6s-.3-2.3-.8-3-1.1-1.2-1.7-1.5c-.6-.3-1.5-.3-2.9-.3h-2.3Z"/>
        <path class="cls-7" d="M568.9,87.1h4.4v16.9c0,1.8,0,3.3.3,4.2.2.9.6,1.7,1.4,2.1.8.5,1.7.8,2.9.8s2-.2,2.7-.6c.6-.5,1.1-1.1,1.4-1.8.3-.8.5-2.4.5-4.7v-16.8h4.1v16.6c0,2.7-.2,4.7-.6,6.2-.5,1.5-1.2,2.6-2.6,3.6-1.4.9-3.2,1.4-5.6,1.4s-3.3-.3-4.7-.9-2.3-1.5-3-2.9c-.8-1.4-1.1-3.6-1.1-7.1v-17.1Z"/>
        <path class="cls-16" d="M591.4,87.1h15.6v3.6h-11v7.7h8.8v3.6h-8.8v8.5h11.3v3.6h-15.7v-27.2l-.2.2Z"/>
        <path class="cls-32" d="M610.2,87.1h8.3c2.1,0,3.6.2,4.7.5,1.1.3,2,1.1,2.7,2.3s1.1,2.6,1.1,4.2c0,3-1.4,5-4.1,5.9,3.3,1.1,4.8,3.3,4.8,6.8s-.6,3.8-2,5.3c-1.4,1.5-3.8,2.3-7.4,2.3h-8.3v-27.2h.2ZM614.6,98.4h2.9c2,0,3.3-.3,3.9-1.1.6-.8.9-1.7.9-2.9s-.3-2.4-1.1-2.9c-.8-.6-1.8-.9-3.3-.9h-3.3v7.9-.2ZM614.6,110.7h3.6c3.3,0,5-1.5,5-4.4s-.3-2.1-1.1-3c-.8-.9-2.1-1.4-4.4-1.4h-3.3v8.8h.2Z"/>
        <path class="cls-31" d="M632.4,87.1h4.5v23.4h9.7v3.8h-14.2v-27.2Z"/>
        <path class="cls-51" d="M654.3,87.1h5l7.3,27.2h-4.5l-1.7-6.8h-8l-1.7,6.8h-4.2l7.9-27.2h0ZM659.5,104l-3.2-12.6-3,12.6h6.2Z"/>
      </g>
    </g>
  </g>
</svg>