<?xml version="1.0" encoding="UTF-8"?>
<svg id="Layer_1" data-name="Layer 1" xmlns="http://www.w3.org/2000/svg" version="1.1" viewBox="0 0 400 400">
  <defs>
    <style>
      .cls-1 {
        fill: #fff;
        stroke-width: 0px;
      }
    </style>
  </defs>
  <g id="Option_1" data-name="Option 1">
    <g>
      <path class="cls-1" d="M252.5,270.7c-.7-.4-1.5-.6-2.1-1.1-4.6-3.6-9.2-7.3-13.8-10.9-10.4-8.2-19.6-17.7-27.5-28.3-6.1-8.2-11.4-16.9-15.3-26.3-2.9-6.8-4.6-14-3.9-21.5,1.1-11.4,8.5-19.3,20-21.3,8-1.4,15.7-.3,23.1,3,13.2,5.9,23.2,15.2,30.1,27.9,2.9,5.3,5.1,11,6.7,16.8.1.5.2,1.1.4,2.1-.8-.5-1.4-.8-1.8-1.2-2.7-2.7-6-4.2-9.6-5.4-3.2-1.1-6.2-3-9.3-4.6-2.4-1.3-4.8-2.6-7.2-3.9-.3-.2-.7-.2-1.4-.5.4.8.5,1.4.8,1.7,1,1.2,2,2.4,3.1,3.5,1.3,1.4,1.1,2.3-.8,2.6-2.5.4-5.1.3-7.6.5-.5,0-.9-.1-1.4-.3-3.3-.9-6.6-1.1-10.1-.6-2.2.3-4.8,0-7-.7-7.7-2.2-14.2-6.1-18.9-12.7-1.5-2.1-2.5-4.5-2.9-7.2,0-.5-.3-.9-.5-1.4-.2,0-.3,0-.5,0-.2.7-.6,1.4-.7,2.1-.5,4.4.3,8.5,2.8,12.2.5.7,1,1.5,1.2,2.4,2.7,8.5,7.4,15.9,12.7,22.8,6.9,8.9,14.1,17.6,21.4,26.3,6.3,7.4,12.8,14.7,19.2,22,.4.5.8,1,1.1,1.5-.1.2-.2.3-.3.5Z"/>
      <path class="cls-1" d="M153.4,134.7c-2,.7-4,1.3-6,2.1-3.1,1.1-3.1,1.1-4-2.1-.4-1.7-.4-1.6,1.3-2,2.1-.5,4.2-1.2,6.2-1.9.4-.1.7-.4,1-1-.5-.1-1-.3-1.5-.3-1.9,0-3.9,0-5.8,0-1.1,0-1.5-.4-1.5-1.5,0-3.3,0-3.4,3.4-3.1,1.6.2,3.3.1,5,.1.3,0,.7-.1,1.1-.6-.5-.3-1-.7-1.6-.9-1.8-.6-3.5-1-5.3-1.5-1-.3-1.3-.7-.9-1.7,1-2.8.9-2.7,3.9-2.3,3.4.5,6.7,1.3,9.6,3.2.3.2.7.4,1.2.7-.3.5-.5.9-.7,1.3-2.1,3.5-1.3,7.9,1.8,10.7,2.9,2.6,7.7,2.8,10.8.6,0,0,0,0,.1,0,.5-.4,1.2-1.4,1.5-1.3,1,.3,1.9,1,2.8,1.6.2.2.4.9.2,1.2-3.4,6.6-2.1,12.8,1.5,18.8.8,1.3,1.6,2.7,2.6,3.8,1.1,1.3,1.7,1.2,3,.1,3.9-3.3,5.6-7.8,6.7-12.5.8-3.6.7-7.2-1.6-10.5-.2-.2,0-1,.3-1.2.7-.6,1.6-1.1,2.5-1.7.2.2.5.3.7.5,2.8,3,7.4,3.4,10.5,1,3.9-3,5-7.8,2.6-11.5-.6-1-.5-1.4.5-2,3.6-2,7.6-2.6,11.5-3.2.3,0,.8.4,1.2.7.1,0,.1.3.2.5.9,2.6.9,2.5-1.8,3.3-1.5.4-3.1,1-4.6,1.5-.3.1-.6.5-.9.8.4.2.8.5,1.2.5,2.1,0,4.2-.2,6.4-.4,1.2-.1,1.6.2,1.7,1.4.1,3.7,1,3.6-3.4,3.5-1.8,0-3.5.1-5.3.2,0,.2,0,.3,0,.5.5.3,1,.6,1.5.7,2,.5,4,1,6.1,1.4.9.2,1.1.6,1,1.5-.5,3.5-.7,3.7-4.1,2.6-1.9-.6-3.8-1.1-5.7-1.7,0,.1-.2.2-.3.3.6.6,1,1.4,1.7,1.9,1.7,1.2,3.5,2.4,5.4,3.4.9.5,1,1,.5,1.8,0,0,0,.2-.2.2-2.2,2.7-1.3,3.4-4.6.7-1.5-1.2-3.1-2.4-4.6-3.5-.4-.3-.9-.5-1.3-.7-.1,0-.2.2-.3.3.2.6.3,1.2.7,1.7,1.4,1.9,2.8,3.8,4.4,5.5.9,1,1,1.6,0,2.5-2.5,2.3-2.5,2.4-4.4-.5-1.2-1.8-2.4-3.6-3.7-5.4-.4-.6-1-1.1-1.6-1.7l-.4.2c0,.5,0,1,.3,1.5.9,2.5,1.8,5.1,2.7,7.6.5,1.2.1,1.8-1,2.3-3,1.2-2.9,1.2-3.8-1.9-.6-2-1.3-3.9-2-5.9-.1-.4-.4-.7-.9-1,0,.5-.2.9-.2,1.4.2,2.7.3,5.4.6,8.1,0,.9-.2,1.5-1.1,1.9-4.2,2.1-8.4,4.3-12.6,6.5-.9.5-1.6.5-2.5,0-2.1-1.1-4.1-2.1-6.2-3.1-2.1-1-4.2-2-6.3-3-1-.4-1.3-1-1.2-2.1.2-2.6.2-5.3.2-7.9,0-.5-.1-1.1-.2-1.6-.1,0-.3,0-.4,0-.3.6-.6,1.1-.8,1.7-.7,2.2-1.3,4.3-2,6.5-.3,1.1-.8,1.4-1.8.9-3-1.2-3-1.1-2-4.2.6-1.9,1.3-3.8,1.8-5.7.2-.7.2-1.4.3-2.1-.2,0-.3-.1-.5-.2-.6.7-1.2,1.3-1.7,2.1-1.3,2-2.5,4.1-3.7,6.2-.9,1.5-1.1,1.6-2.4.4-3.1-2.8-2.8-1.9-.4-4.9,1.3-1.6,2.3-3.3,3.5-5,.2-.3.3-.7.2-1.4-.5.2-1,.3-1.4.6-1.7,1.3-3.2,2.6-4.9,3.9-2.8,2.1-3,2.1-4.5-1-.2-.4-.3-.8-.6-1.3,3-1.6,5.7-3.5,7.9-6,0-.2-.2-.3-.3-.5Z"/>
      <path class="cls-1" d="M289.7,296.5c-2.3-1.5-4.7-3-7-4.5-10.9-7.4-20.3-16.4-28.7-26.5-7-8.4-14.5-16.4-21.5-24.8-8.6-10.2-17.2-20.5-24.6-31.7-.9-1.4-1.6-3-2.4-4.5-.2-.4,0-1,0-1.6.5.1,1,.1,1.4.3,6.1,2.5,10.6,7,14.8,11.8,6.1,7.1,12.1,14.2,18.2,21.2,7.3,8.4,14.7,16.6,22,25,6.8,7.9,13.7,15.8,20.3,23.8,2.8,3.3,5.1,7.1,7.6,10.6.1.2.2.4.3.6,0,0-.2.2-.3.2Z"/>
      <path class="cls-1" d="M296.8,293c-2.7-2.5-5.2-4.8-7.6-7.3-8.1-8.7-16.3-17.4-24.2-26.3-11.1-12.4-21.9-25-32.8-37.5-2.8-3.2-5.4-6.5-8.1-9.8-.6-.7-1-1.6-1.5-2.4-.4-.8-.1-1.3.8-1.3,3.6.2,7.1.5,9.8,3.7,7.5,8.7,15.4,17.1,23.1,25.6,7.7,8.5,15.4,17,23.1,25.5,2.4,2.7,5,5.2,7.2,8,2,2.6,3.8,5.3,5.1,8.3,1.8,3.9,3.1,8.1,4.6,12.2.2.4.2.9.4,1.5Z"/>
      <path class="cls-1" d="M130.3,162.1c0,.6,0,1.2,0,1.7,0,5.6-.2,11.2,0,16.8.4,7,2,13.8,4.3,20.5,3.6,10.8,9.3,20.6,16.5,29.3,3.6,4.4,7.5,8.5,11.3,12.7,1,1.2,2.1,2.3,1.4,4.4-1.2-.8-2.4-1.5-3.4-2.4-13.3-10.4-23.7-23.3-30.6-38.8-4-9-6-18.6-5.2-28.6.4-5,1.5-9.8,4-14.2.3-.6.8-1.1,1.1-1.7.1,0,.3,0,.4.1Z"/>
      <path class="cls-1" d="M286.8,263.8c-1.8-1.5-3.3-2.8-4.8-4.2-12.6-12.5-24.4-25.7-35.9-39.1-2.2-2.6-4.5-5.2-6.7-7.9-.5-.6-.7-1.5-1.1-2.2.8-.2,1.5-.5,2.3-.7,2.9-.7,5.3,0,7.4,2.4,4.5,5.2,9.3,10,13.8,15.2,6.3,7.2,12.4,14.5,18.5,21.8,3.3,3.9,4.9,8.7,6.3,13.5,0,.3,0,.6,0,1.3Z"/>
      <path class="cls-1" d="M232.4,264.4c.6.3.8.4.9.5,1.9,2.8,4.9,4.3,7.4,6.5.9.8,1.8,1.8,2.4,2.9,4.2,8.6,8.3,17.3,12.3,26,1.6,3.3,2.6,6.8,1.7,10.6-.3,1.3-.6,2.9-2,3.4-1.5.5-2.8-.6-3.7-1.7-1.4-1.9-3-3.9-3.8-6.1-3.8-9.7-7.5-19.5-11.1-29.3-1.3-3.5-2.4-7.1-3.6-10.6-.2-.6-.3-1.2-.5-2.2Z"/>
      <path class="cls-1" d="M223.4,259c1,1.7,2.2,3.2,3,5,1.4,2.8,2.7,5.7,3.8,8.7,3.9,10.3,7.7,20.6,11.5,30.9.2.5.4,1.1.5,1.6.2,1,.2,2-.8,2.7-1,.7-2,.5-2.9-.1-2.2-1.6-3.9-3.5-4.8-6.1-1.1-3.1-2.2-6.2-3.1-9.3-2.6-8.9-5.1-17.8-7.6-26.7-.4-1.5-.5-3.2-.7-4.7,0-.6.3-1.2.5-1.8.2,0,.4-.1.6-.2Z"/>
      <path class="cls-1" d="M230.5,158c-7.1-1.8-13.9-3.1-20.9-1.4,0-.1-.1-.2-.2-.4.5-.4,1.1-.9,1.6-1.3,2.8-2,5.5-4.2,7.4-7.1,5.4-8.2,7.2-17,4.8-26.6-.1-.5-.3-1.1-.4-1.7,0-.4.2-1.1.3-1.2.4,0,1.1,0,1.4.3.4.5.7,1.1.9,1.7,2,5.3,2.7,10.9,2.9,16.5.1,4.1,0,8.2,0,12.3,0,2.4.4,4.6,1.4,6.7.2.5.4,1,.7,2Z"/>
      <path class="cls-1" d="M248.1,274.8c2.5,1.9,4.7,3.7,7.1,5.3,2.3,1.5,4.6,2.9,7,4.2,1.6.9,2.8,2,3.5,3.7.8,2,1.8,3.9,2.5,5.9.9,2.6,1,5.3-.3,7.8-1,2.1-2.5,2.6-4.4,1.2-1.6-1.2-3.3-2.7-4.2-4.5-3.8-7.5-7.4-15.2-11-22.8,0-.2,0-.3-.2-.9Z"/>
      <path class="cls-1" d="M279.5,240.9c-1.3-1.2-2.7-2.4-3.9-3.8-6.7-7.5-13.4-15-20.1-22.5-1.6-1.8-3.1-3.8-4.5-5.8-.3-.4-.5-1-.9-1.9.9.1,1.5.1,2,.3,4.5,1.2,8.4,3.3,11.7,6.7,2.8,2.9,5.7,5.7,8.2,8.8,1.8,2.3,3.3,4.9,4.6,7.6,1.3,2.6,2.2,5.4,3.2,8.2.2.7.3,1.4.4,2.1-.2.1-.4.2-.6.3Z"/>
      <path class="cls-1" d="M218.5,267.2c1.1,3.2,2.1,6,3,8.8,2,6.4,3.9,12.8,5.8,19.3.2.7,0,1.5,0,2.3-.9-.2-2.1,0-2.7-.5-2.2-1.6-3.3-4-4-6.5-1.2-4.5-2.2-9-3.4-13.5-.3-1.1-.4-2.3-.8-3.3-1.2-2.8.7-4.3,2.2-6.5Z"/>
      <path class="cls-1" d="M182.2,154c0-1-.1-1.6-.2-2.2-.2-3.7-.3-7.4-.6-11.1,0-.8-.4-1.6-.9-2.2-.8-1-.3-1.5.5-2,1.8-1,4.1,0,5,2,.8,1.8.7,3.7.5,5.5-.4,3.4-2,6.3-3.6,9.3,0,.1-.3.2-.7.6Z"/>
      <path class="cls-1" d="M173.2,309c-1-.5-1.9-.8-2.5-1.3-.8-.8-1.5-1.7-2-2.7-1.6-3.6-1.2-7.2,0-10.8.7-2.3,2.9-2.9,4.8-1.6,1.3.9,1.4,1.6.3,2.8-2.4,2.5-2.9,5.6-2.3,8.8.2,1.5,1,2.9,1.7,4.9Z"/>
      <path class="cls-1" d="M198.3,311.5c-.8,0-1.3.2-1.9.1-2.1-.5-3.6-1.9-4.7-3.6-1.5-2.2-2.3-4.7-2.5-7.4,0-1.6.8-2.6,2.3-2.6,1.5,0,2.4.7,2.2,2.4-.3,4.1.8,7.6,4.1,10.3,0,0,.1.2.4.8Z"/>
      <path class="cls-1" d="M151,299.7c-.8-.3-1.8-.5-2.5-1.1-2.6-1.9-3.7-4.7-3.9-7.8,0-1.4,0-2.8.4-4.2.3-1.3,1.4-1.8,2.7-1.7,1.4.1,2,1.2,1.7,2.5-.3,1.2-.8,2.4-.9,3.7-.3,2.6.5,4.9,2.1,7,.3.3.5.7.7,1.1-.1.2-.2.3-.3.5Z"/>
      <path class="cls-1" d="M210.8,298.3c.1-1.9.3-3.7.3-5.5,0-1.9-.8-3.5-2.4-4.8-.4-.3-.8-1.2-.7-1.6.3-.6.9-1.4,1.5-1.6,1.4-.4,2.6.2,3.5,1.4,2.1,2.8,1.2,9.5-1.6,11.6-.2.2-.5.2-.7.3Z"/>
      <path class="cls-1" d="M132.6,288.7c-1.3-.5-1.7-1.5-1.9-2.6-.6-3.2.1-6.2,2.1-8.8.8-1.1,1.9-1.8,3.4-1.7,1.3.1,2.1,1.1,1.9,2.4,0,.3-.3.7-.5.7-2.8.8-3.8,3.1-4.4,5.5-.3,1.4-.4,2.8-.6,4.4Z"/>
      <path class="cls-1" d="M162.5,236c-5.8-4.7-10.6-10.3-14.2-16.8.1-.1.3-.2.4-.4,4.8,5.6,9.5,11.2,14.3,16.8l-.5.4Z"/>
      <path class="cls-1" d="M180.6,278.1c-.5.8-.8,1.4-1.2,1.7-.5.2-1.3.2-1.8,0-1.1-.6-2-1.4-2.9-2.2-.3-.3-.4-1.1-.2-1.5.6-1.1,2.6-1.6,3.6-.8.9.7,1.6,1.8,2.5,2.9Z"/>
      <path class="cls-1" d="M196.3,225.3c-2.3-4.9-4.7-9.8-6.7-14.8-3.6-8.9-6.3-17.9-5.1-27.7.9-7.7,3.9-14.2,10-19.2.5-.4,1.1-.9,1.6-1.4.2-.3.5-.9.4-1.1-.3-.3-.8-.6-1.2-.5-1,.2-2.1.3-3,.8-3,1.8-6,3.7-8.9,5.8-1.1.7-1.7.7-2.8,0-2.6-1.8-5.3-3.5-8-5-1.6-.9-3.5-1.5-5.3-1.8-7.5-1-14.2-3.7-19.6-9-8.8-8.7-10.4-19.2-7.7-30.7.2-.7.6-1.4-.6-1.7-.9-.2-1.7-.3-2,.9-.3,1.1-.8,2.2-1.1,3.4-2.5,9.2-2.4,18.5-1.3,27.9.3,2.9,1.2,5.7,1.3,8.5.3,7.4.7,14.7,2.2,22,1.7,7.9,4,15.5,8.1,22.4,3.6,6.2,8.1,11.7,13.5,16.5,6,5.5,12.5,10.1,20.1,13.1.3.1.6.2.9.2-6.1-4.6-12.6-8.5-17.2-14.6,5.6,2.1,10.6,5.6,16.2,7.8,0-.1.1-.2.2-.4-1.3-1.2-2.7-2.3-4-3.5,3.9,1.2,7.6,2.8,11.4,4.2,3.8,1.3,7.7,2.4,11.6,3.6,0-.2,0-.3.1-.5-1-1.6-2.2-3.2-3-4.9ZM138.6,170.7c.3.4.6.8,1,1.1.9.8,1.8,1.7,2.8,2.3,1.2.7,2.4.8,3.4-.4.5-.6,1.1-.8,1.4,0,1.5,4.1,5,5.5,8.8,6.3,2.8.6,5.7.7,8.6,0,2-.5,2-.5,1.6-2.4,0-.2,0-.4,0-.9,3.6,1.3,7.2.7,10.7-.3,0,.1.1.2.2.4-.4.5-.7,1-1.2,1.4-7,5.9-14.9,7.5-23.5,4.5-3-1-5.9-2.8-8.7-4.4-2.8-1.7-4.2-4.5-5.1-7.7ZM143.5,190.8c-.5-.6-1-1.2-1.5-1.8,0,0,.1-.2.2-.3.7.3,1.3.7,2,.9,1.2.4,2.3.6,3.2-.7.8-1.1,1.3-.1,1.6.5,1.7,3.2,4.6,4.8,8,5.5.6.1,1.3.1,2.1.2-.1-1-.2-1.7-.4-2.7.7.3,1.1.4,1.5.7,3.4,2.1,6.9,1.8,10.5.8,1.2-.3,1.5-1.2,1-2.3-.2-.4-.4-.8-.6-1.4.5,0,.8,0,1.1,0,2,0,4,0,6,.1.6,0,1.1.1,1.7.2-.3.6-.4,1.2-.8,1.7-3.7,4-8.4,5.9-13.7,6.8-2.8.5-5.6.2-8.3-.6-5.1-1.5-10-3.4-13.8-7.4ZM183.1,205.6c-6.1,6-13,9-21.6,6.3-4.1-1.2-8-2.7-10.8-6.1-.5-.6-.9-1.2-1.4-1.8.1-.1.2-.2.3-.3.5.3.9.5,1.4.8.7.4,1.3.8,2,1,.8.3,1.5.1,1.7-.9.2-1.1.8-1.2,1.4-.4,4,5.1,9.5,5.4,15.3,4.7.8,0,1.6-.5,2.3-.7,0-.1,0-.3,0-.4-.5-.3-1.1-.6-1.6-1.1-.3-.2-.4-.7-.6-1,.3-.1.7-.4,1-.4,3.4.7,6.6,0,9.7-1.1.4-.1.9.2,1.3.2-.2.4-.2.9-.5,1.2Z"/>
      <path class="cls-1" d="M220.8,108.6c10.8-3,16-10.9,15.1-16.1-2,1.9-3.9,4.1-6.3,5.7-2.4,1.6-5.2,2.5-7.9,3.7,0-.1-.2-.2-.3-.4,5.2-3.7,7.4-8.7,6.7-15.1-.4.2-.5.5-.8.8-3.1,4.2-7,7.5-11.4,10.3-3.6,2.2-7.2,4.4-10.7,6.7-1.8,1.2-3.4,2.7-5,4.1-.3.3-.5.8-.8,1.1,0,0,.2.2.3.3,3.6-1.8,7.3-3.5,11.4-3.5-.2.3-.5.4-.8.6-4,2.4-8.1,4.7-12,7.2-3.5,2.2-5.9,5.4-7.5,9.2-.5,1.2-1,2.4-1.7,3.4-.5.6-1.5.7-2.2,1.1,0-.6-.3-1.3-.2-1.9,1-4,2.6-7.7,4.8-11.1,3.6-5.8,7.9-11.1,14.1-14.4.2-.1.5-.3,1-.6-1.2-.7-1.9-1.2-2.7-1.5-6-2.6-12.2-4.1-18.8-4.5-9-.6-17.5,1-25.5,5.1-.4.2-.8.6-1.3.9,1.1.7,2,1.3,2.9,1.9,7.5,5.6,12,13.3,15.5,21.7.4,1,.6,2.1.8,3.2.2,1-.4,1.3-1.4,1-1.4-.4-1.9-1.7-2.3-2.8-1.4-3.5-3.5-6.6-6.6-8.9-3.3-2.5-6.8-4.7-10.3-7.1-1.2-.8-2.4-1.5-3.7-2.3,0-.1.1-.3.2-.4,4,.6,7.6,2.2,11.3,3.9-.4-.8-.8-1.7-1.5-2.1-4.3-3-8.5-6.1-12.9-8.9-4.6-2.9-9-6-12.4-10.2-.7-.9-1.4-1.7-2.3-2.9-.4,7.2,2.9,12.3,8.3,16.5-3.6-.7-6.5-2-9.1-4-2.5-1.9-4.8-4.1-7.1-6.1-.3,4.3,2,7.6,5,10.5,3,2.8,6.3,4.9,10.3,6-4.9.6-9.4-.4-13.9-2.8,0,.5,0,.6.1.7.1.3.3.5.4.7,1.9,2.2,4,4.3,7,4.9,3.5.7,7,1.3,10.5,1.4,7.6.3,14.2,2.8,19.8,7.9,1.9,1.8,3.5,4,5.2,6,4,4.8,13.3,6.3,18.7.8,1.2-1.2,2.1-2.5,3.2-3.8,5.4-6.5,12.2-10.1,20.6-10.6,3.6-.2,7.1-.6,10.7-1.1,3.4-.5,6.1-2.3,8.5-4.7.4-.4.7-1,1.2-1.7-2.6.8-4.9,1.6-7.2,2.2-2.7.7-6,.7-7.1.2ZM168,101.9c0-.2,0-.5,0-.7.7-.3,1.3-.7,2-.9,6-1.9,12.1-2.2,18.3-1.3,1.9.3,3.9.9,5.7,1.5.4.1.8.7,1.1,1.1-.5.3-1,.8-1.5.7-3.4-.4-6.7-.8-10.1-1.2-.9-.1-1.9-.2-2.8,0-3.2.4-6.4,1-9.7,1.3-1,.1-2-.3-3.1-.4ZM172.6,108.1c2.2-3.2,15.2-3.4,18.6-.3-1.3.4-2.3.9-3.3.9-4.1.1-8.2.1-12.3,0-.9,0-1.9-.4-3-.7ZM186,115.5c-1.5.3-3,.4-4.5.5-1.3-.2-2.6-.2-3.9-.5-.4,0-.8-.7-1.1-1.1.4-.3.7-.8,1.1-.9,2.8-.8,5.6-1.1,8.5-.2.5.2.9.6,1.3.9-.5.4-.8,1.1-1.4,1.2Z"/>
      <path class="cls-1" d="M216.5,253.1c-1.5-3.1-3.5-5.8-6.3-7.7-4.8-3.2-9.8-6-14.7-9-1.8-1.1-3.6-2.2-5.7-3.5.3.7.4,1,.6,1.4,1.1,2,2.2,4,3.3,5.9,3.6,6.3,4.1,12.8,1.2,19.4-2.3,5.1-4.8,10.1-7.3,15.2-.9,1.8-1.8,3.6-2.9,5.3-.5.7-1.1,1.5-1.9,1.9-2.4,1.3-5,2.3-7.4,3.6-1,.6-1.9,1.5-2.7,2.4-.5.5-.4,1.2.4,1.3,2.6.4,3.7,2.1,4.1,4.5,0,.4.5.7.8,1.1.3-.2.7-.5,1-.7,3.1-3.3,6.1-6.7,9.2-10,.2-.3.7-.3,1.1-.4,0,.3.3.7.2,1-.4,3.5-.8,6.9-1.2,10.4,0,.5,0,1,0,1.9,3.1-2.4,5.7-1.7,8.1.9.1-4.8-1.5-9.1-1.9-14,1.1,1.1,1.8,2,2.6,2.7.5.4,1.2.9,1.7.8,2-.3,3.7.2,5.5,1,1.1.5,1.8,0,2.1-1.1.3-1.3.6-2.7,1-4,.6-2,0-3.2-2.1-3.3-1.3,0-2.5,0-3.8.3-1.2.2-1.5-.2-1.2-1.3.3-1,.6-2.1.9-3.1,1.5-4.4,3.9-8.1,8-10.5,1.7-1,3.3-2,4.9-3.1,3.8-2.6,4.6-5.4,2.6-9.5ZM200,259.3c-1-1-1.8-4.8-1.4-6.6,1.2.3,2.5.4,2.9,1.8.5,1.9-.4,3.3-1.5,4.8Z"/>
      <path class="cls-1" d="M187.4,255c-.9-3.6-2.4-7-5.1-9.5-5-4.5-10.1-8.8-15.6-13.5.3.7.4,1,.6,1.3,3.9,6.7,4.2,13.3.5,20.2-2.3,4.2-5.2,7.7-8.2,11.3-2.4,2.9-5.3,4.4-9,4.8-1.2.1-2.4.2-3.7.4-1.6.2-3.3.4-4.9.8-1.1.3-2.2,1-2.2,2.3,0,2.1.3,4.3.6,6.6.4-.2.7-.4.9-.6,2.9-1.8,5.7-3.6,8.6-5.3,1.8-1.1,3.8-.9,5.9-.4-4,2.1-7.3,4.8-9.9,9.1,4-.5,5.8,1.7,6.9,4.8.1,0,.3,0,.4-.1.4-.8.8-1.5,1.2-2.3,2.6-5.9,9.3-8.5,15.1-5.7,2.1,1,2.8.7,3.4-1.5.4-1.5.9-2.9,2.3-3.7.8-.5.6-1.1,0-1.4-1.1-.5-2.3-.8-3.4-1.1-.8-.2-1.6,0-2.5,0,0-.4,0-.5,0-.6.2-.4.4-.9.7-1.2,2.8-3.6,6.1-6.4,10.4-8.1,1.8-.7,3.5-1.4,5.2-2.2,1.9-.9,2.5-2.2,2-4.2ZM174,252.4c-.3.7-1,1.2-1.5,1.9-.3-.7-.8-1.5-.9-2.2-.2-1.6-.2-3.2-.3-4.9,3,.9,3.9,2.8,2.6,5.3Z"/>
    </g>
    <g>
      <g>
        <path class="cls-1" d="M2.1,229.7l18.7-3.6,1.4,7.2c.6,3.1.1,5.7-1.5,7.6-1.6,1.9-3.6,3.1-6,3.6-2.8.5-5.2.1-7.3-1.2-2.1-1.3-3.4-3.4-3.9-6l-1.4-7.6ZM7.5,234.7l.3,1.5c.2,1,.8,1.7,1.8,2.1,1,.5,2.4.6,4,.3,1.4-.3,2.5-.8,3.4-1.5.9-.8,1.2-1.7,1-2.8l-.3-1.5-10.2,1.9Z"/>
        <path class="cls-1" d="M14.5,262.1l-4.4,1.3-4-13.8,18.3-5.3,4,13.8-4.2,1.2-2.4-8.3-2.7.8,1.9,6.7-4.1,1.2-1.9-6.7-3,.9,2.4,8.3Z"/>
        <path class="cls-1" d="M23.4,283.8l-4.3,1.8-5.3-12.3,17.5-7.5,2.3,5.4-13.2,5.7,3,6.9Z"/>
        <path class="cls-1" d="M25.3,297.5l2.8-2.7-2.4-4.5-3.8.8-2.3-4.2,19.6-3.9,2.9,5.4-13.9,14.3-2.8-5.3ZM29.8,289.2l1.5,2.7,4.1-4-5.6,1.3Z"/>
        <path class="cls-1" d="M45.9,320.6l-3.6,2.6-9.3-12.9,3-2.1,13.9.4-4.6-6.3,3.6-2.6,8.7,12.1-3,2.2-13.6-.3,4.9,6.9Z"/>
        <path class="cls-1" d="M49.3,332c-1.8-2-2.5-4.2-2.3-6.7.2-2.4,1.5-4.6,3.7-6.6,2.1-1.9,4.4-2.8,6.9-2.8s4.6,1.1,6.5,3.2c1.7,2,2.5,4.2,2.3,6.6-.2,2.4-1.4,4.6-3.6,6.5-2.3,2-4.7,3-7.1,2.9-2.5,0-4.6-1.1-6.3-3.1ZM52.5,329.1c.6.7,1.4,1,2.4.8.9-.2,2.3-1.1,4-2.6,2.5-2.2,3.2-3.9,2-5.3-1.3-1.4-3.3-.9-6.2,1.6-2.7,2.3-3.4,4.2-2.2,5.6Z"/>
        <path class="cls-1" d="M69.8,352.1l-3.5-3.2,1.9-9.7c.2-1.2.6-2.7,1.2-4.3-.6,1.1-1.2,2-1.8,2.6l-6.3,6.8-3.5-3.2,13-13.9,4,3.8-1.5,8.1c-.3,1.6-.6,3-1,4,.9-1.4,1.9-2.7,3.1-4l3.8-4.1,3.5,3.2-13,13.9Z"/>
        <path class="cls-1" d="M81.5,361.2l1.4-3.6-4.1-3.1-3.2,2.3-3.8-2.9,16.2-11.6,4.9,3.7-6.8,18.8-4.7-3.6ZM82.2,351.8l2.5,1.9,2.1-5.3-4.6,3.5Z"/>
        <path class="cls-1" d="M122.2,363.8l-9.2,16.7-4.8-2.6,6.6-11.9-9.6,10.2-3.3-1.8,3.3-13.7-6.6,11.9-3.8-2.1,9.2-16.7,6.7,3.7-2.4,10.2,7.2-7.6,6.7,3.7Z"/>
        <path class="cls-1" d="M132,383.5l-1.8,4.2-13.2-5.5,7.3-17.6,13.2,5.5-1.7,4.1-7.9-3.3-1.1,2.6,6.4,2.7-1.6,3.9-6.4-2.7-1.2,2.9,7.9,3.3Z"/>
        <path class="cls-1" d="M145.1,377.4l-4.5,13.8-5.3-1.7,4.5-13.8-3.8-1.2,1.4-4.3,12.8,4.2-1.4,4.3-3.8-1.2Z"/>
        <path class="cls-1" d="M163.3,396.9l-6.3-1.5-1.1-7.7-1.8-.4-1.6,7.1-5.7-1.3,4.3-18.6,9.7,2.2c2.1.5,3.7,1.4,4.6,2.7,1,1.3,1.2,2.7.9,4.4-.2,1.1-.7,2-1.3,2.7-.6.7-1.7,1.2-3.1,1.6l1.5,8.9ZM155,383.4l2.4.6c.7.2,1.3.1,1.8,0,.5-.2.8-.6,1-1.2.3-1.2-.3-2-1.8-2.3l-2.6-.6-.8,3.5Z"/>
        <path class="cls-1" d="M174.9,398.8c-2.7-.3-4.7-1.5-6.2-3.5-1.5-2-2-4.4-1.6-7.4.4-2.8,1.4-5.1,3.3-6.7,1.8-1.6,4.2-2.3,7-1.9,2.6.3,4.7,1.5,6.1,3.4,1.4,1.9,2,4.4,1.6,7.3-.4,3-1.5,5.3-3.4,6.9-1.9,1.6-4.2,2.2-6.8,1.9ZM175.4,394.5c1,.1,1.7-.2,2.3-1,.5-.8.9-2.3,1.2-4.6.4-3.3-.3-5-2-5.3-1.9-.2-3.1,1.5-3.6,5.3-.4,3.5.3,5.4,2.1,5.6Z"/>
        <path class="cls-1" d="M193.4,393.1l-.2,6.9h-5.9c0-.1.5-19.2.5-19.2l8.1.2c2,0,3.6.3,4.6.8s1.9,1.2,2.5,2.2c.6,1,.9,2.1.8,3.2,0,1.8-.7,3.3-2,4.3-1.3,1.1-3,1.6-5.1,1.5h-3.3ZM193.5,389h2c1.7,0,2.6-.5,2.6-1.8,0-1.2-.7-1.8-2.3-1.8h-2.1c0,0,0,3.6,0,3.6Z"/>
        <path class="cls-1" d="M214.9,399.9c-2.7.2-4.9-.5-6.7-2.2-1.8-1.6-2.8-4-3-6.9-.2-2.8.4-5.2,1.9-7.2,1.5-2,3.6-3.1,6.5-3.3,2.6-.2,4.9.5,6.7,2.1,1.8,1.6,2.8,3.9,3,6.8.2,3-.4,5.5-2,7.4-1.5,1.9-3.6,3-6.3,3.2ZM214.5,395.5c1,0,1.7-.6,2-1.4.4-.9.5-2.5.3-4.8-.2-3.3-1.2-4.9-3-4.8-1.9.1-2.7,2.1-2.5,5.9.3,3.5,1.3,5.2,3.1,5.1Z"/>
        <path class="cls-1" d="M239.6,391.6l.8,4.6-13.2,2.2-3.1-18.8,5.8-1,2.4,14.2,7.4-1.2Z"/>
        <path class="cls-1" d="M244.3,375.6l4.3,18.5-5.7,1.3-4.3-18.5,5.7-1.3Z"/>
        <path class="cls-1" d="M255.8,377.1l4.1,13.9-5.3,1.6-4.1-13.9-3.8,1.1-1.3-4.4,12.9-3.8,1.3,4.4-3.8,1.1Z"/>
        <path class="cls-1" d="M274.8,385.7l-2.4-3.1-4.8,1.8.3,3.9-4.4,1.7-1.4-19.9,5.8-2.2,12.4,15.6-5.6,2.1ZM267.1,380.1l2.9-1.1-3.4-4.6.6,5.7Z"/>
        <path class="cls-1" d="M297.4,375l-4.2,2.1-8.5-5.2c-1.1-.7-2.3-1.5-3.6-2.6.8,1,1.4,1.8,1.8,2.6l4.2,8.2-4.2,2.1-8.6-17,4.9-2.5,7.1,4.2c1.4.8,2.6,1.6,3.4,2.4-1-1.3-1.9-2.7-2.7-4.3l-2.5-5,4.2-2.1,8.6,17Z"/>
        <path class="cls-1" d="M309.9,367.2l-2.9-2.6-4.3,2.7,1.1,3.8-4,2.6-5.3-19.2,5.2-3.3,15.3,12.9-5,3.2ZM301.3,363.3l2.6-1.7-4.3-3.8,1.7,5.5Z"/>
        <path class="cls-1" d="M323.2,357.9l-12.3-14.5,5.6-4.8c2.4-2.1,4.9-2.9,7.3-2.5,2.4.4,4.5,1.6,6.1,3.5,1.8,2.2,2.7,4.5,2.5,7-.1,2.5-1.3,4.6-3.3,6.3l-5.9,5ZM324.8,350.8l1.2-1c.7-.6,1.1-1.5,1-2.7-.1-1.1-.7-2.3-1.7-3.6-.9-1.1-1.9-1.8-3-2.2s-2.1-.2-2.9.5l-1.2,1,6.7,7.9Z"/>
        <path class="cls-1" d="M345.2,331.1l3.3,3.2-10,10.3-13.6-13.3,10-10.3,3.1,3.1-6,6.2,2,1.9,4.9-5,3,3-4.9,5,2.2,2.2,6-6.2Z"/>
        <path class="cls-1" d="M353.5,317.3l5.5,4.2-3.6,4.7-15.2-11.4,4.9-6.5c1.2-1.6,2.3-2.7,3.3-3.3,1-.6,2.1-.8,3.2-.7s2.2.5,3.1,1.2c1.5,1.1,2.2,2.5,2.4,4.2.1,1.7-.4,3.4-1.7,5.1l-2,2.6ZM350.1,314.9l1.2-1.6c1-1.4,1-2.4,0-3.2-1-.7-1.9-.4-2.9.8l-1.3,1.7,2.9,2.2Z"/>
        <path class="cls-1" d="M358.6,287.5l10.8,6.6c2,1.2,3.1,2.7,3.3,4.5.2,1.8-.4,3.6-1.5,5.6-1.2,2-2.7,3.4-4.3,4.2-1.6.7-3.4.5-5.3-.7l-11-6.7,3.1-5.1,10.4,6.4c.8.5,1.4.7,2,.5s1.1-.5,1.5-1.2c.4-.6.5-1.2.5-1.7,0-.5-.2-.9-.5-1.2s-.9-.7-1.8-1.3l-9.5-5.8,2.4-3.9Z"/>
        <path class="cls-1" d="M379,279l4.1,2-6.3,12.9-17.1-8.4,6.3-12.9,3.9,1.9-3.8,7.7,2.5,1.2,3.1-6.2,3.8,1.9-3.1,6.2,2.8,1.4,3.8-7.7Z"/>
        <path class="cls-1" d="M384.4,278.1l-17.8-6.8,3.4-9c.7-1.9,1.7-3.1,3-3.6,1.3-.5,2.5-.5,3.7,0,.9.3,1.6.9,2.1,1.7.5.8.7,1.7.6,2.8,1.4-2.1,3.3-2.7,5.5-1.9,1.3.5,2.3,1.4,3.1,2.6.7,1.2.6,3.1-.4,5.8l-3.2,8.5ZM375.3,268.9l1-2.5c.2-.6.2-1.1,0-1.5-.2-.4-.5-.6-.9-.8-1-.4-1.7,0-2.2,1.3l-.9,2.4,3,1.1ZM382.3,271.5l1-2.7c.3-.7.3-1.2,0-1.6-.2-.4-.5-.7-.9-.9-.4-.2-.8-.1-1.3,0s-.8.7-1.1,1.5l-.9,2.5,3.2,1.2Z"/>
        <path class="cls-1" d="M390,245.9l4.5,1.3-3.6,12.9-18.3-5.1,1.6-5.6,13.8,3.9,2-7.2Z"/>
        <path class="cls-1" d="M397.1,234l-3.9.4-.9,5,3.5,1.8-.9,4.7-17.6-9.3,1.1-6.1,19.8-2.4-1.1,5.9ZM388.4,237.7l.6-3-5.7.5,5.1,2.5Z"/>
      </g>
      <g>
        <path class="cls-1" d="M13.7,189.5l-.4-5.5c1.6-.3,2.5-1.4,2.7-3.3.2-1.5-.2-2.2-.9-2.3-.4,0-.7,0-1,.4-.3.3-.5.9-.8,1.7-1,3.3-2,5.3-3.2,6.1-1.1.8-2.4,1.2-3.8,1-1.8-.2-3.2-1-4.2-2.5-1-1.5-1.4-3.5-1.2-6,.4-3.9,2.2-6.2,5.4-7.2l1,5c-1.3.4-2.1,1.3-2.2,2.8-.1,1.3.2,1.9,1,2,.4,0,.6,0,.9-.3.2-.3.5-.8.7-1.6.7-2.2,1.3-3.8,1.8-4.7.5-.9,1.2-1.6,2.1-2.2,1-.5,2-.8,3.3-.6,1.9.2,3.4,1.1,4.4,2.8,1,1.7,1.4,3.8,1.1,6.3-.5,4.6-2.7,7.3-6.7,7.9Z"/>
        <path class="cls-1" d="M23.1,163.8c-.5,2.6-1.8,4.6-3.9,5.9-2.1,1.3-4.6,1.7-7.5,1.1-2.8-.6-4.9-1.8-6.4-3.8s-2-4.3-1.4-7.1c.5-2.6,1.8-4.5,3.9-5.8,2-1.3,4.5-1.6,7.4-1.1,3,.6,5.2,1.9,6.6,3.9,1.5,2,1.9,4.3,1.4,6.9ZM18.8,163c.2-1,0-1.7-.8-2.3-.8-.6-2.3-1.1-4.5-1.6-3.2-.7-5-.1-5.4,1.6-.4,1.9,1.3,3.2,5,3.9,3.5.7,5.4.2,5.8-1.6Z"/>
        <path class="cls-1" d="M21.2,141.3l1.9-5c2.2.9,3.6,2.3,4.4,4.1s.8,3.7.2,5.7c-.8,2.5-2.2,4.2-4.3,5.2s-4.6,1.1-7.5.2c-2.9-.9-4.9-2.3-6.2-4.3-1.3-2-1.6-4.3-.8-6.8.7-2.4,2-4.1,3.7-4.9,1.7-.9,3.7-1.1,6-.5l-1.3,5.3c-1.2-.4-2.2-.4-2.9-.1-.7.3-1.1.8-1.3,1.4-.5,1.8,1,3.2,4.5,4.3,2,.6,3.4.8,4.3.6.9-.2,1.4-.8,1.7-1.6.5-1.5-.3-2.6-2.2-3.4Z"/>
        <path class="cls-1" d="M14.8,124.6l17.7,6.9-2.1,5.4-17.7-6.9,2.1-5.4Z"/>
        <path class="cls-1" d="M35.5,114.1l4.1,1.9-6.1,13-17.2-8.1,6.1-13,4,1.9-3.7,7.8,2.5,1.2,3-6.3,3.8,1.8-3,6.3,2.8,1.3,3.7-7.8Z"/>
        <path class="cls-1" d="M40.2,114.8l-16.4-9.7,3.8-6.3c1.6-2.8,3.7-4.3,6.1-4.7,2.4-.4,4.7,0,6.9,1.3,2.4,1.5,4,3.4,4.7,5.7.7,2.4.3,4.7-1.1,7.1l-3.9,6.6ZM39.4,107.5l.8-1.3c.5-.8.5-1.8,0-2.8s-1.4-2-2.8-2.8c-1.2-.7-2.4-1.1-3.5-1.1-1.2,0-2,.5-2.6,1.4l-.8,1.3,8.9,5.3Z"/>
        <path class="cls-1" d="M55.6,91l-3.7-1.3-3,4.1,2.4,3.1-2.8,3.8-11.9-16,3.6-5,18.9,6.4-3.5,4.8ZM46.2,90.5l1.8-2.5-5.4-2,3.6,4.5Z"/>
        <path class="cls-1" d="M59.7,85.6l-14.2-12.7,4.9-5.5c2.1-2.4,4.4-3.5,6.9-3.5,2.5,0,4.6.9,6.5,2.6,2.1,1.9,3.3,4.1,3.5,6.5s-.6,4.7-2.4,6.7l-5.2,5.8ZM60.4,78.3l1-1.1c.6-.7.8-1.6.6-2.8-.3-1.1-1-2.2-2.2-3.3-1-.9-2.1-1.5-3.3-1.7-1.1-.2-2.1,0-2.8.9l-1,1.1,7.7,6.9Z"/>
        <path class="cls-1" d="M77,67.2l-12.3-14.5,5.6-4.8c2.4-2.1,4.9-2.9,7.3-2.5s4.5,1.6,6.1,3.5c1.8,2.2,2.7,4.5,2.5,7-.2,2.5-1.3,4.6-3.3,6.3l-5.9,5ZM78.6,60.1l1.2-1c.7-.6,1.1-1.5,1-2.7-.1-1.1-.7-2.3-1.7-3.6-.9-1.1-1.9-1.8-3-2.2-1.1-.4-2.1-.2-2.9.5l-1.2,1,6.7,7.9Z"/>
        <path class="cls-1" d="M100.4,43.4l2.6,3.7-11.8,8.2-10.9-15.6,11.8-8.2,2.5,3.6-7.1,4.9,1.6,2.3,5.7-4,2.4,3.5-5.7,4,1.8,2.6,7.1-4.9Z"/>
        <path class="cls-1" d="M119.4,38.1l-2.7-2.8-4.5,2.4.7,3.9-4.2,2.2-3.6-19.6,5.5-2.9,14.1,14.1-5.3,2.8ZM111.1,33.4l2.7-1.4-3.9-4.2,1.2,5.6Z"/>
        <path class="cls-1" d="M125.5,35l-7.1-17.7,9-3.6c1.9-.8,3.4-.8,4.6-.2,1.2.6,2.1,1.5,2.6,2.7.4.9.4,1.8.2,2.7-.2.9-.8,1.7-1.6,2.4,2.5-.4,4.2.5,5.1,2.7.5,1.3.6,2.6.2,4-.4,1.4-1.9,2.6-4.5,3.6l-8.4,3.4ZM126.1,22.1l2.5-1c.6-.3,1-.6,1.1-1,.1-.4.1-.8,0-1.2-.4-1-1.2-1.2-2.4-.7l-2.4,1,1.2,3ZM128.9,29.1l2.6-1.1c.7-.3,1.1-.6,1.2-1.1.2-.4.2-.9,0-1.3-.2-.4-.5-.7-.9-.9-.4-.2-1-.2-1.8.1l-2.5,1,1.3,3.2Z"/>
        <path class="cls-1" d="M149.6,26.6c-2.6.7-4.9.5-7-.7s-3.6-3.3-4.4-6.1c-.8-2.7-.7-5.2.4-7.4,1-2.2,2.9-3.7,5.7-4.5,2.5-.7,4.9-.5,7,.7,2.1,1.2,3.5,3.2,4.4,6,.8,2.9.7,5.5-.4,7.7-1.1,2.2-2.9,3.7-5.5,4.4ZM148.4,22.4c.9-.3,1.5-.9,1.7-1.8.2-.9,0-2.5-.7-4.7-.9-3.2-2.2-4.5-3.9-4-1.8.5-2.2,2.6-1.2,6.2,1,3.4,2.4,4.9,4.1,4.3Z"/>
        <path class="cls-1" d="M174,10.1l1.9,10.5-2.8.5c-.4-.7-.7-1.3-1.1-1.8-.9,1.7-2.5,2.8-4.8,3.2-2.4.4-4.6,0-6.4-1.5-1.9-1.4-3.1-3.6-3.6-6.4-.5-2.8-.2-5.3,1-7.5,1.2-2.2,3.2-3.5,6.2-4.1,2.2-.4,4.1-.2,5.7.7,1.6.9,2.7,2.3,3.5,4.4l-5.5,1.6c-.6-1.9-1.7-2.7-3.1-2.5-1.9.3-2.5,2.3-1.9,5.9.4,2.2,1,3.5,1.7,4.1.7.6,1.5.8,2.4.6.7-.1,1.3-.4,1.7-1,.4-.5.6-1.1.4-1.9l-3.1.6-.7-4,8.4-1.5Z"/>
        <path class="cls-1" d="M188.5,19.5l-1.4-3.7-5.1.4-.8,3.8-4.7.4,4.4-19.5,6.2-.5,7.5,18.5-5.9.5ZM182.7,12l3.1-.2-2-5.4-1.1,5.6Z"/>
        <path class="cls-1" d="M195.3,19L195.6,0h7.4c3.2.2,5.6,1.2,7.1,3.1s2.3,4.1,2.3,6.6c0,2.8-.9,5.1-2.7,6.9-1.7,1.8-4,2.6-6.7,2.6h-7.7ZM201.2,14.8h1.5c1,0,1.8-.4,2.5-1.3.7-.9,1-2.2,1.1-3.8,0-1.4-.2-2.6-.8-3.6-.6-1-1.4-1.5-2.5-1.6h-1.5s-.2,10.3-.2,10.3Z"/>
        <path class="cls-1" d="M221.9,20.8c-2.7-.3-4.7-1.5-6.2-3.4-1.5-2-2-4.4-1.7-7.4.3-2.8,1.4-5.1,3.2-6.7,1.8-1.6,4.2-2.3,7-2,2.6.3,4.7,1.4,6.1,3.4,1.4,1.9,2,4.4,1.6,7.3-.4,3-1.5,5.3-3.4,6.9-1.9,1.6-4.2,2.3-6.8,1.9ZM222.4,16.5c1,.1,1.7-.2,2.3-1,.5-.8.9-2.3,1.2-4.6.4-3.3-.3-5-2.1-5.3-1.9-.2-3.1,1.5-3.5,5.3-.4,3.5.3,5.4,2.1,5.6Z"/>
        <path class="cls-1" d="M231.7,16.1l5.5.2c.1,1.6,1.1,2.6,2.9,3,1.4.3,2.2,0,2.4-.7,0-.4,0-.7-.3-1-.3-.3-.8-.6-1.6-1-3.1-1.3-5-2.6-5.7-3.8-.7-1.2-.9-2.5-.6-3.9.4-1.8,1.4-3.1,3-3.9,1.6-.9,3.6-1,6.1-.5,3.8.8,6,2.9,6.5,6.2l-5,.4c-.2-1.4-1.1-2.2-2.6-2.5-1.2-.3-2,0-2.1.7,0,.3,0,.6.2.9.2.3.7.6,1.5.9,2.1,1,3.6,1.7,4.5,2.3.9.6,1.5,1.4,1.9,2.4.4,1,.5,2.1.3,3.3-.4,1.9-1.5,3.2-3.3,4.1s-3.9,1-6.4.4c-4.5-1-6.9-3.5-7.1-7.5Z"/>
        <path class="cls-1" d="M270,28.1l-1.5,4.3-13.5-4.9,6.5-17.9,13.5,4.9-1.5,4.1-8.1-2.9-.9,2.6,6.5,2.4-1.4,4-6.5-2.4-1.1,2.9,8.1,2.9Z"/>
        <path class="cls-1" d="M270.4,27.2l5.3,1.4c-.2,1.6.5,2.8,2.2,3.6,1.3.6,2.2.6,2.5-.1.2-.4.2-.7,0-1.1-.2-.4-.7-.8-1.4-1.3-2.8-2-4.3-3.7-4.8-5-.4-1.3-.3-2.6.2-3.9.8-1.6,2-2.7,3.7-3.2,1.7-.5,3.8-.2,6.1.9,3.5,1.6,5.2,4.1,5,7.5l-5-.7c0-1.4-.6-2.4-2-3-1.2-.5-1.9-.4-2.2.3-.1.3-.1.6,0,.9.2.3.6.7,1.3,1.2,1.9,1.4,3.2,2.5,3.9,3.2.7.7,1.2,1.7,1.4,2.7.2,1.1,0,2.2-.5,3.3-.8,1.7-2.2,2.8-4.1,3.3-1.9.4-4,.1-6.3-1-4.2-2-6-4.9-5.3-8.9Z"/>
        <path class="cls-1" d="M293.4,37l-3.5,6-5.1-3,9.6-16.4,7,4.1c1.8,1,3,2,3.6,2.9s1,2,1.1,3.1-.2,2.2-.8,3.3c-.9,1.6-2.2,2.5-3.9,2.8-1.7.3-3.4,0-5.2-1.1l-2.9-1.7ZM295.3,33.5l1.7,1c1.5.9,2.5.8,3.2-.3.6-1,.2-1.9-1.2-2.7l-1.9-1.1-1.9,3.2Z"/>
        <path class="cls-1" d="M314.1,53.6l-2.6,3.7-11.7-8.3,11.1-15.5,11.7,8.3-2.6,3.6-7-5-1.6,2.2,5.7,4-2.5,3.4-5.7-4-1.8,2.5,7,5Z"/>
        <path class="cls-1" d="M325.2,59.6l3.8,3.7c-1.7,1.6-3.5,2.4-5.5,2.4-1.9,0-3.7-.7-5.3-2.1-2-1.7-3-3.7-3.1-6,0-2.3.9-4.6,2.8-6.9,2-2.3,4.1-3.6,6.4-4,2.3-.4,4.5.3,6.6,2,1.9,1.6,2.9,3.4,3,5.4.1,1.9-.5,3.8-1.9,5.7l-4.3-3.3c.8-1,1.2-1.8,1.2-2.6s-.2-1.3-.7-1.8c-1.4-1.2-3.3-.4-5.7,2.4-1.4,1.6-2.1,2.8-2.2,3.7-.1.9.1,1.6.8,2.2,1.2,1,2.5.8,4-.7Z"/>
        <path class="cls-1" d="M343.1,60.3l-13.4,13.5-4.1-4.1,13.4-13.5,4.1,4.1Z"/>
        <path class="cls-1" d="M338.5,83.6l2.1-3.3-3.4-3.8-3.6,1.6-3.1-3.6,18.2-8.1,4.1,4.7-10.4,17-3.9-4.5ZM341,74.5l2,2.3,3.2-4.8-5.2,2.5Z"/>
        <path class="cls-1" d="M354.5,96.9l-3.8,2.8-7.9-10.8,15.4-11.2,3.4,4.7-11.6,8.5,4.4,6.1Z"/>
        <path class="cls-1" d="M370.6,95.7l-16.1,10.2-3.1-4.9,16.1-10.2,3.1,4.9Z"/>
        <path class="cls-1" d="M366.9,118.9l-4,2.1-7.5-13.9,3.2-1.7,13.7,2.2-3.7-6.9,3.9-2.1,7.1,13.1-3.3,1.8-13.5-2,4,7.4Z"/>
        <path class="cls-1" d="M367.6,131.8l3-2.5-2-4.7-3.9.4-1.9-4.4,19.8-2.1,2.4,5.7-15.2,13-2.3-5.5ZM372.9,123.9l1.2,2.8,4.5-3.6-5.7.8Z"/>
        <path class="cls-1" d="M370.2,138.1l18.2-5.7,2.2,7c1,3.1.8,5.6-.6,7.7-1.3,2.1-3.2,3.5-5.6,4.3-2.7.9-5.2.7-7.4-.4-2.2-1.1-3.7-2.9-4.5-5.5l-2.3-7.4ZM376.1,142.4l.5,1.5c.3.9,1,1.6,2.1,1.9s2.4.3,4-.2c1.3-.4,2.4-1.1,3.2-1.9.8-.9,1-1.8.7-2.9l-.5-1.5-9.9,3.1Z"/>
        <path class="cls-1" d="M377,163.8c-.5-2.6-.1-4.9,1.3-7,1.4-2,3.6-3.3,6.5-3.9,2.8-.6,5.3-.2,7.4,1,2.1,1.2,3.5,3.2,4.1,6,.5,2.6.1,4.9-1.3,6.9-1.4,2-3.5,3.3-6.4,3.9-3,.6-5.5.3-7.6-1s-3.5-3.2-4-5.8ZM381.2,163c.2,1,.8,1.6,1.7,1.8.9.3,2.5.1,4.8-.3,3.2-.7,4.7-1.9,4.3-3.6-.4-1.9-2.4-2.4-6.1-1.7-3.5.7-5,2-4.7,3.8Z"/>
        <path class="cls-1" d="M384.5,171.7l1.5,5.3c-1.5.6-2.1,1.9-1.9,3.7.2,1.5.6,2.2,1.4,2.1.4,0,.7-.2.9-.6.2-.4.3-1,.4-1.9.3-3.4.9-5.6,1.8-6.7.9-1.1,2.1-1.6,3.5-1.8,1.8-.2,3.3.3,4.7,1.6,1.3,1.2,2.1,3.1,2.4,5.7.4,3.9-.9,6.6-3.9,8.1l-2-4.7c1.2-.6,1.7-1.7,1.6-3.2-.1-1.3-.6-1.9-1.4-1.8-.4,0-.6.2-.8.5-.2.3-.3.9-.4,1.7-.2,2.3-.5,4-.8,5-.3,1-.8,1.9-1.6,2.6-.8.7-1.8,1.2-3.1,1.3-1.9.2-3.6-.4-4.9-1.8-1.4-1.4-2.2-3.4-2.4-5.9-.5-4.6,1.1-7.7,4.9-9.1Z"/>
      </g>
    </g>
  </g>
</svg>